<svg width="30" height="30" viewBox="0 0 30 30" fill="none" xmlns="http://www.w3.org/2000/svg">
<path d="M15 0C6.71573 0 0 6.71573 0 15C0 23.2843 6.71573 30 15 30C23.2843 30 30 23.2843 30 15C30 6.71573 23.2843 0 15 0ZM15 2.25C22.0416 2.25 27.75 7.95837 27.75 15C27.75 22.0416 22.0416 27.75 15 27.75C7.95837 27.75 2.25 22.0416 2.25 15C2.25 7.95837 7.95837 2.25 15 2.25ZM15.5294 8.32963L15.4205 8.20345C15.0211 7.80405 14.3961 7.76774 13.9557 8.09452L13.8295 8.20345L7.82827 14.2047C7.42882 14.6041 7.39256 15.2292 7.71946 15.6697L7.82842 15.7958L13.8307 21.7958C14.2701 22.2351 14.9824 22.2349 15.4217 21.7955C15.821 21.396 15.8572 20.771 15.5304 20.3307L15.4214 20.2045L11.3385 16.1235L21.3761 16.1239C21.9456 16.1239 22.4163 15.7007 22.4908 15.1516L22.5011 14.9989C22.5011 14.4294 22.0778 13.9587 21.5287 13.8842L21.3761 13.8739L11.3415 13.8735L15.4205 9.79444C15.8199 9.39504 15.8562 8.77004 15.5294 8.32963L15.4205 8.20345L15.5294 8.32963Z" fill="#0C58FE"/>
</svg>
