<svg width="24" height="24" viewBox="0 0 24 24" fill="none" xmlns="http://www.w3.org/2000/svg">
<path d="M12.25 2C13.983 2 15.3992 3.35645 15.4949 5.06558L15.5 5.25H20.75C21.1642 5.25 21.5 5.58579 21.5 6C21.5 6.3797 21.2178 6.69349 20.8518 6.74315L20.75 6.75H19.954L18.6739 19.7692C18.5412 21.1183 17.4484 22.16 16.1126 22.2445L15.9371 22.25H8.56293C7.20734 22.25 6.06365 21.2645 5.84883 19.9434L5.82614 19.7692L4.545 6.75H3.75C3.3703 6.75 3.05651 6.46785 3.00685 6.10177L3 6C3 5.6203 3.28215 5.30651 3.64823 5.25685L3.75 5.25H9C9 3.45507 10.4551 2 12.25 2ZM18.447 6.75H6.052L7.31893 19.6224C7.37768 20.2196 7.85033 20.6843 8.43585 20.7436L8.56293 20.75H15.9371C16.5372 20.75 17.0459 20.3251 17.1623 19.7482L17.1811 19.6224L18.447 6.75ZM14 9.5C14.3797 9.5 14.6935 9.78215 14.7432 10.1482L14.75 10.25V17.25C14.75 17.6642 14.4142 18 14 18C13.6203 18 13.3065 17.7178 13.2568 17.3518L13.25 17.25V10.25C13.25 9.83579 13.5858 9.5 14 9.5ZM10.5 9.5C10.8797 9.5 11.1935 9.78215 11.2432 10.1482L11.25 10.25V17.25C11.25 17.6642 10.9142 18 10.5 18C10.1203 18 9.80651 17.7178 9.75685 17.3518L9.75 17.25V10.25C9.75 9.83579 10.0858 9.5 10.5 9.5ZM12.25 3.5C11.3318 3.5 10.5788 4.20711 10.5058 5.10647L10.5 5.25H14C14 4.2835 13.2165 3.5 12.25 3.5Z" fill="#FFF5D1"/>
</svg>
