<svg width="38" height="38" viewBox="0 0 38 38" fill="none" xmlns="http://www.w3.org/2000/svg">
<path d="M19 0C29.4934 0 38 8.50659 38 19C38 29.4934 29.4934 38 19 38C8.50659 38 0 29.4934 0 19C0 8.50659 8.50659 0 19 0ZM25.1174 13.2424L16.625 21.7347L12.8826 17.9924C12.3261 17.4359 11.4239 17.4359 10.8674 17.9924C10.3109 18.5489 10.3109 19.4511 10.8674 20.0076L15.6174 24.7576C16.1739 25.3141 17.0761 25.3141 17.6326 24.7576L27.1326 15.2576C27.6891 14.7011 27.6891 13.7989 27.1326 13.2424C26.5761 12.6859 25.6739 12.6859 25.1174 13.2424Z" fill="white"/>
</svg>
