<svg width="32" height="32" viewBox="0 0 32 32" fill="none" xmlns="http://www.w3.org/2000/svg">
<path d="M23.6723 18.6666C25.3283 18.6666 26.6708 20.0091 26.6708 21.6651V22.4323C26.6708 23.6247 26.2447 24.7778 25.4693 25.6836C23.3768 28.1283 20.1939 29.3348 16.0001 29.3348C11.8056 29.3348 8.62425 28.1279 6.53584 25.6822C5.76283 24.777 5.33813 23.6257 5.33813 22.4353V21.6651C5.33813 20.0091 6.68061 18.6666 8.33664 18.6666H23.6723ZM23.6723 20.6666H8.33664C7.78518 20.6666 7.33813 21.1136 7.33813 21.6651V22.4353C7.33813 23.1495 7.59295 23.8403 8.05676 24.3835C9.72784 26.3404 12.349 27.3348 16.0001 27.3348C19.6512 27.3348 22.2746 26.3403 23.9499 24.3831C24.4151 23.8396 24.6708 23.1477 24.6708 22.4323V21.6651C24.6708 21.1136 24.2238 20.6666 23.6723 20.6666ZM16.0001 2.67285C19.682 2.67285 22.6667 5.65762 22.6667 9.33952C22.6667 13.0214 19.682 16.0062 16.0001 16.0062C12.3182 16.0062 9.33341 13.0214 9.33341 9.33952C9.33341 5.65762 12.3182 2.67285 16.0001 2.67285ZM16.0001 4.67285C13.4228 4.67285 11.3334 6.76219 11.3334 9.33952C11.3334 11.9168 13.4228 14.0062 16.0001 14.0062C18.5774 14.0062 20.6667 11.9168 20.6667 9.33952C20.6667 6.76219 18.5774 4.67285 16.0001 4.67285Z" fill="#5C73A1"/>
</svg>
