<svg width="25" height="30" viewBox="0 0 25 30" fill="none" xmlns="http://www.w3.org/2000/svg">
<path d="M12.6665 6.66504C17.3609 6.66504 21.1665 10.3981 21.1665 15.0031C21.1665 17.4138 20.1106 19.6261 18.0443 21.6068C17.9541 21.6933 17.8843 21.7974 17.839 21.9119L17.8021 22.0295L16.476 27.6599C16.2149 28.7685 15.2499 29.5716 14.1089 29.6574L13.9058 29.665H11.4276C10.2674 29.665 9.25233 28.9232 8.91044 27.8517L8.8572 27.6592L7.53288 22.0298C7.49503 21.8689 7.4109 21.7221 7.29047 21.6067C5.32151 19.7203 4.26942 17.6239 4.17369 15.3461L4.1665 15.0031L4.17105 14.7279C4.31908 10.2503 8.06597 6.66504 12.6665 6.66504ZM15.1462 25.6391H10.1857L10.5708 27.2713C10.6536 27.6235 10.9497 27.8833 11.3066 27.9318L11.4276 27.9399H13.9058C14.2742 27.9399 14.5988 27.7155 14.7272 27.3853L14.7625 27.2715L15.1462 25.6391ZM12.6665 8.39016C9.02993 8.39016 6.06589 11.2148 5.92999 14.7495L5.92513 15.0031L5.933 15.3217C6.02227 17.1197 6.87152 18.7939 8.51924 20.3726C8.82891 20.6692 9.05859 21.0353 9.18939 21.4378L9.24647 21.6419L9.78003 23.9139H15.5518L16.0886 21.6412C16.186 21.2279 16.3851 20.8455 16.6673 20.5268L16.8152 20.373C18.462 18.7944 19.3108 17.12 19.4 15.3218L19.4079 15.0031L19.403 14.7495C19.2671 11.2148 16.3031 8.39016 12.6665 8.39016Z" fill="#5C73A1"/>
<rect x="12" width="1.6" height="4" rx="0.8" fill="#5C73A1"/>
<rect x="5" y="1.7998" width="1.6" height="4" rx="0.8" transform="rotate(-30 5 1.7998)" fill="#5C73A1"/>
<rect width="1.6" height="4" rx="0.8" transform="matrix(-0.866025 -0.5 -0.5 0.866025 20.3857 1.7998)" fill="#5C73A1"/>
<rect x="23.8286" y="4" width="1.6" height="4" rx="0.8" transform="rotate(45 23.8286 4)" fill="#5C73A1"/>
<rect width="1.6" height="4" rx="0.8" transform="matrix(-0.707107 0.707107 0.707107 0.707107 1.13135 4)" fill="#5C73A1"/>
</svg>
