<svg width="32" height="32" viewBox="0 0 32 32" fill="none" xmlns="http://www.w3.org/2000/svg">
<path d="M16.0165 3C16.9951 3.01128 17.9699 3.12435 18.9252 3.33738C19.3421 3.43038 19.654 3.77801 19.7013 4.20262L19.9283 6.23841C20.031 7.17315 20.8202 7.88112 21.7611 7.88211C22.014 7.8825 22.2641 7.82984 22.4978 7.72644L24.3653 6.90608C24.7537 6.73546 25.2075 6.82848 25.4975 7.13815C26.8471 8.57952 27.8522 10.3082 28.4372 12.1941C28.5633 12.6008 28.4181 13.0427 28.0754 13.2953L26.4201 14.5155C25.9479 14.8624 25.669 15.4133 25.669 15.9993C25.669 16.5852 25.9479 17.1362 26.4211 17.4839L28.0779 18.7044C28.4207 18.957 28.566 19.399 28.4398 19.8057C27.8551 21.6913 26.8505 23.4199 25.5017 24.8615C25.212 25.1711 24.7586 25.2644 24.3702 25.0942L22.4951 24.2727C21.9587 24.0379 21.3426 24.0723 20.8356 24.3653C20.3287 24.6583 19.9913 25.1749 19.9268 25.757L19.7014 27.7925C19.6549 28.2123 19.3498 28.5576 18.9389 28.6553C17.0077 29.1148 14.9956 29.1148 13.0643 28.6553C12.6535 28.5576 12.3483 28.2123 12.3018 27.7925L12.0767 25.76C12.0106 25.179 11.6727 24.664 11.1661 24.372C10.6596 24.08 10.0445 24.0457 9.50984 24.2792L7.63434 25.1009C7.24587 25.2711 6.79229 25.1777 6.50262 24.8679C5.15308 23.4246 4.1485 21.694 3.56451 19.8064C3.43873 19.3998 3.58406 18.9582 3.92671 18.7057L5.58448 17.4844C6.05667 17.1375 6.33554 16.5865 6.33554 16.0006C6.33554 15.4147 6.05667 14.8637 5.58386 14.5163L3.92713 13.2971C3.58397 13.0446 3.43851 12.6024 3.56473 12.1954C4.14974 10.3095 5.15484 8.58086 6.50441 7.13949C6.79437 6.82981 7.24816 6.73679 7.63657 6.90741L9.50374 7.72763C10.041 7.96341 10.6586 7.92779 11.1679 7.63026C11.675 7.33612 12.0126 6.81896 12.0778 6.23686L12.3046 4.20262C12.3519 3.7778 12.6641 3.43005 13.0813 3.33726C14.0377 3.12456 15.0135 3.01154 16.0165 3ZM16.0167 4.99986C15.4113 5.00699 14.8077 5.05924 14.2107 5.15602L14.0654 6.45891C13.9297 7.67157 13.227 8.74803 12.1741 9.35871C11.1149 9.97756 9.82339 10.052 8.69969 9.55889L7.50197 9.03275C6.73939 9.9583 6.13243 11.0018 5.70494 12.1222L6.76867 12.9051C7.75375 13.6288 8.33554 14.7782 8.33554 16.0006C8.33554 17.223 7.75375 18.3724 6.76971 19.0954L5.7043 19.8803C6.13143 21.0027 6.73848 22.0482 7.50158 22.9755L8.70842 22.4468C9.82588 21.9589 11.1086 22.0303 12.1649 22.6392C13.2213 23.2482 13.926 24.3223 14.0642 25.5368L14.2095 26.8487C15.3957 27.0504 16.6075 27.0504 17.7937 26.8487L17.939 25.5369C18.0734 24.3227 18.7772 23.2449 19.8349 22.6337C20.8925 22.0224 22.1778 21.9507 23.2973 22.4406L24.5032 22.9689C25.2656 22.043 25.8724 20.9993 26.2998 19.8786L25.2359 19.0948C24.2508 18.3711 23.669 17.2217 23.669 15.9993C23.669 14.7769 24.2508 13.6275 25.2347 12.9046L26.2972 12.1215C25.8697 11.0008 25.2626 9.95712 24.4999 9.03141L23.3046 9.55649C22.8175 9.77201 22.2906 9.88294 21.7585 9.88211C19.7989 9.88005 18.1543 8.40473 17.9404 6.45843L17.7952 5.1556C17.2011 5.05893 16.6038 5.00683 16.0167 4.99986ZM15.9998 10.9999C18.7613 10.9999 20.9998 13.2385 20.9998 15.9999C20.9998 18.7614 18.7613 20.9999 15.9998 20.9999C13.2384 20.9999 10.9998 18.7614 10.9998 15.9999C10.9998 13.2385 13.2384 10.9999 15.9998 10.9999ZM15.9998 12.9999C14.343 12.9999 12.9998 14.3431 12.9998 15.9999C12.9998 17.6568 14.343 18.9999 15.9998 18.9999C17.6567 18.9999 18.9998 17.6568 18.9998 15.9999C18.9998 14.3431 17.6567 12.9999 15.9998 12.9999Z" fill="#5C73A1"/>
</svg>
