<svg width="39" height="32" viewBox="0 0 39 32" fill="none" xmlns="http://www.w3.org/2000/svg">
<path d="M13.3334 24.0047C14.438 24.0047 15.3334 24.9001 15.3334 26.0047C15.3334 27.1092 14.438 28.0047 13.3334 28.0047C12.2288 28.0047 11.3334 27.1092 11.3334 26.0047C11.3334 24.9001 12.2288 24.0047 13.3334 24.0047ZM21.3334 24.0047C22.438 24.0047 23.3334 24.9001 23.3334 26.0047C23.3334 27.1092 22.438 28.0047 21.3334 28.0047C20.2288 28.0047 19.3334 27.1092 19.3334 26.0047C19.3334 24.9001 20.2288 24.0047 21.3334 24.0047ZM3.66675 4H4.14984C5.49441 4 6.6647 4.89264 7.03213 6.16762L7.08582 6.38357L7.14408 6.66533L28.3319 6.66608C28.9591 6.66608 29.4315 7.23686 29.3142 7.85305L27.1649 19.1461C26.7759 21.1901 24.9889 22.6691 22.9081 22.6692L11.7587 22.6696C9.67798 22.6696 7.89093 21.1909 7.5017 19.1469L5.35107 7.85315L5.1285 6.79452C5.04101 6.37783 4.70149 6.06762 4.28958 6.00975L4.14984 6H3.66675C3.11446 6 2.66675 5.55228 2.66675 5C2.66675 4.49374 3.04295 4.07535 3.53105 4.00913L3.66675 4ZM27.1236 8.66608H7.54181L9.46639 18.7728C9.67598 19.8734 10.6382 20.6696 11.7586 20.6696L22.9081 20.6692C24.0285 20.6692 24.9907 19.8728 25.2002 18.7721L27.1236 8.66608Z" fill="#5C73A1"/>
<path d="M38.5303 14.5303C38.8232 14.2374 38.8232 13.7626 38.5303 13.4697L33.7574 8.6967C33.4645 8.40381 32.9896 8.40381 32.6967 8.6967C32.4038 8.98959 32.4038 9.46447 32.6967 9.75736L36.9393 14L32.6967 18.2426C32.4038 18.5355 32.4038 19.0104 32.6967 19.3033C32.9896 19.5962 33.4645 19.5962 33.7574 19.3033L38.5303 14.5303ZM16 14L16 14.75L38 14.75L38 14L38 13.25L16 13.25L16 14Z" fill="#5C73A1"/>
</svg>
