<svg width="27" height="29" viewBox="0 0 27 29" fill="none" xmlns="http://www.w3.org/2000/svg">
<path d="M10.6667 25.0047C11.7712 25.0047 12.6667 25.9001 12.6667 27.0047C12.6667 28.1092 11.7712 29.0047 10.6667 29.0047C9.5621 29.0047 8.66667 28.1092 8.66667 27.0047C8.66667 25.9001 9.5621 25.0047 10.6667 25.0047ZM18.6667 25.0047C19.7712 25.0047 20.6667 25.9001 20.6667 27.0047C20.6667 28.1092 19.7712 29.0047 18.6667 29.0047C17.5621 29.0047 16.6667 28.1092 16.6667 27.0047C16.6667 25.9001 17.5621 25.0047 18.6667 25.0047ZM1 5H1.48309C2.82767 5 3.99795 5.89264 4.36538 7.16762L4.41908 7.38357L4.47733 7.66533L25.6651 7.66608C26.2924 7.66608 26.7647 8.23686 26.6475 8.85305L24.4981 20.1461C24.1091 22.1901 22.3221 23.6691 20.2414 23.6692L9.09194 23.6696C7.01123 23.6696 5.22418 22.1909 4.83495 20.1469L2.68432 8.85315L2.46175 7.79452C2.37426 7.37783 2.03474 7.06762 1.62283 7.00975L1.48309 7H1C0.447715 7 0 6.55228 0 6C0 5.49374 0.376205 5.07535 0.864306 5.00913L1 5ZM24.4568 9.66608H4.87506L6.79965 19.7728C7.00923 20.8734 7.97149 21.6696 9.09187 21.6696L20.2413 21.6692C21.3617 21.6692 22.3239 20.8728 22.5334 19.7721L24.4568 9.66608Z" fill="#5C73A1"/>
<path d="M13.8029 18.5303C14.0958 18.8232 14.5707 18.8232 14.8636 18.5303L19.6366 13.7574C19.9294 13.4645 19.9294 12.9896 19.6366 12.6967C19.3437 12.4038 18.8688 12.4038 18.5759 12.6967L14.3333 16.9393L10.0906 12.6967C9.79772 12.4038 9.32285 12.4038 9.02995 12.6967C8.73706 12.9896 8.73706 13.4645 9.02995 13.7574L13.8029 18.5303ZM14.3333 0L13.5833 3.27835e-08L13.5833 18L14.3333 18L15.0833 18L15.0833 -3.27835e-08L14.3333 0Z" fill="#5C73A1"/>
</svg>
