<svg width="20" height="20" viewBox="0 0 20 20" fill="none" xmlns="http://www.w3.org/2000/svg">
<path d="M8.12529 11.9951C7.78221 12.4104 7.55875 12.9281 7.50765 13.4956L2.24888 13.4953C1.83528 13.4953 1.5 13.8306 1.5 14.2442V14.8219C1.5 15.3575 1.69111 15.8756 2.03897 16.283C3.2164 17.6618 5.02273 18.4035 7.5076 18.4883C7.55691 19.0584 7.7808 19.5787 8.12529 19.9957L7.99646 19.9964C4.8506 19.9964 2.46458 19.0913 0.89828 17.257C0.318518 16.5781 0 15.7146 0 14.8219V14.2442C0 13.0539 0.924699 12.0796 2.0949 12.0005L2.24888 11.9953L8.12529 11.9951ZM12.7465 9.49538H15.7465C16.3937 9.49538 16.926 9.98725 16.99 10.6176L16.9965 10.7454L16.996 11.995L18.2465 11.9954C19.213 11.9954 19.9965 12.7789 19.9965 13.7454V18.2454C19.9965 19.2119 19.213 19.9954 18.2465 19.9954H10.2465C9.27996 19.9954 8.49646 19.2119 8.49646 18.2454V13.7454C8.49646 12.7789 9.27996 11.9954 10.2465 11.9954L11.496 11.995L11.4965 10.7454C11.4965 10.0982 11.9883 9.56584 12.6187 9.50183L12.7465 9.49538H15.7465H12.7465ZM18.2465 13.4954H10.2465C10.1084 13.4954 9.99646 13.6073 9.99646 13.7454V18.2454C9.99646 18.3834 10.1084 18.4954 10.2465 18.4954H18.2465C18.3845 18.4954 18.4965 18.3834 18.4965 18.2454V13.7454C18.4965 13.6073 18.3845 13.4954 18.2465 13.4954ZM15.4965 10.9954H12.9965L12.996 11.995H15.496L15.4965 10.9954ZM7.99646 0C10.7579 0 12.9965 2.23858 12.9965 5C12.9965 7.76142 10.7579 10 7.99646 10C5.23503 10 2.99646 7.76142 2.99646 5C2.99646 2.23858 5.23503 0 7.99646 0ZM7.99646 1.5C6.06346 1.5 4.49646 3.067 4.49646 5C4.49646 6.933 6.06346 8.5 7.99646 8.5C9.92945 8.5 11.4965 6.933 11.4965 5C11.4965 3.067 9.92945 1.5 7.99646 1.5Z" fill="#4969AD"/>
</svg>
