<svg width="23" height="23" viewBox="0 0 23 23" fill="none" xmlns="http://www.w3.org/2000/svg">
<path opacity="0.3" d="M11.5 0C17.8513 0 23 5.14873 23 11.5C23 17.8513 17.8513 23 11.5 23C5.14873 23 0 17.8513 0 11.5C0 5.14873 5.14873 0 11.5 0ZM11.5 1.725C6.10142 1.725 1.725 6.10142 1.725 11.5C1.725 16.8986 6.10142 21.275 11.5 21.275C16.8986 21.275 21.275 16.8986 21.275 11.5C21.275 6.10142 16.8986 1.725 11.5 1.725ZM15.4631 7.35661L15.5599 7.44012C15.8661 7.74633 15.8939 8.22549 15.6434 8.56314L15.5599 8.65988L12.7201 11.5L15.5599 14.3401C15.8661 14.6463 15.8939 15.1255 15.6434 15.4631L15.5599 15.5599C15.2537 15.8661 14.7745 15.8939 14.4369 15.6434L14.3401 15.5599L11.5 12.7201L8.65988 15.5599C8.35367 15.8661 7.87451 15.8939 7.53686 15.6434L7.44012 15.5599C7.13391 15.2537 7.10608 14.7745 7.35661 14.4369L7.44012 14.3401L10.2799 11.5L7.44012 8.65988C7.13391 8.35367 7.10608 7.87451 7.35661 7.53686L7.44012 7.44012C7.74633 7.13391 8.22549 7.10608 8.56314 7.35661L8.65988 7.44012L11.5 10.2799L14.3401 7.44012C14.6463 7.13391 15.1255 7.10608 15.4631 7.35661Z" fill="currentColor"/>
</svg>
