<svg width="90" height="65" viewBox="0 0 90 65" fill="none" xmlns="http://www.w3.org/2000/svg">
<mask id="path-1-inside-1_112_4892" fill="white">
<path d="M25.6354 64.6297C19.115 64.6297 13.7834 59.5396 13.3974 53.1161L13.375 52.3693L13.3728 46.792C5.98723 46.792 0 40.8048 0 33.4192C0 26.0336 5.98723 20.0463 13.3728 20.0463C18.162 20.0463 22.4307 22.5821 24.7967 26.4613C27.0801 25.3635 29.6116 24.6888 32.2839 24.5373L33.4375 24.5047H51.2684L52.3742 24.5347L53.471 24.6245L54.035 24.7008L54.5253 23.9553L55.1095 23.1627L47.1872 15.2405C44.0677 12.1211 43.7393 7.26739 46.2021 3.78281L46.6656 3.18273L47.1872 2.61486C50.4901 -0.688123 55.7373 -0.861963 59.245 2.09334L59.8128 2.61486L83.9434 26.7454C90.9077 33.7098 90.9077 45.0012 83.9434 51.9656C80.7324 55.1766 76.5177 56.9691 72.1647 57.1711L71.158 57.1894L70.348 57.1575L70.2314 57.4432C68.5136 61.229 64.9322 63.9589 60.6985 64.5222L59.8434 64.6056L59.0705 64.6297H25.6354ZM55.0841 7.34364C54.2092 6.46879 52.7908 6.46879 51.9159 7.34364C51.1383 8.12129 51.0519 9.32842 51.6567 10.2015L51.916 10.5118L64.4355 23.0317L61.5914 25.8923C60.6555 26.8282 59.8732 27.8732 59.2583 28.9973L58.8288 29.8547L57.6405 32.4577L54.8852 31.686C54.011 31.4412 53.1102 31.2858 52.1921 31.2234L51.2684 31.1922H33.4375C30.3201 31.1922 27.4517 32.2587 25.1775 34.0468L24.5391 34.5822L23.8029 35.29L23.3869 35.742L22.8929 36.3375L22.3531 37.0788L22.1651 37.3653C21.9836 37.6488 21.8124 37.9396 21.6523 38.2372L21.3954 38.7384L21.119 39.3482L20.9663 39.7242L20.738 40.3574L20.4956 41.1766C20.3819 41.6117 20.2899 42.0543 20.2204 42.503L20.1688 42.8729L20.0893 43.7129L20.0625 44.5672V52.3693C20.0625 55.2547 22.2554 57.628 25.0656 57.9134L25.6354 57.9422L44.5878 57.9405L44.5917 56.8426C44.5917 53.9572 42.3988 51.5839 39.5886 51.2985L39.0188 51.2697H34.5605C32.7138 51.2697 31.2167 49.7727 31.2167 47.926C31.2167 46.2332 32.4747 44.8341 34.1067 44.6127L34.5605 44.5822H39.0188C45.5393 44.5822 50.8708 49.6723 51.2568 56.0958L51.2792 56.8426L51.2753 57.9405L59.0705 57.9422C61.7101 57.9422 63.9501 56.0963 64.5024 53.5937L64.5944 53.0478L65.0348 49.302L68.7008 50.1881C72.456 51.0958 76.4337 50.0177 79.2146 47.2368C83.3781 43.0733 83.5591 36.4355 79.7577 32.0568L79.2146 31.4742L55.0841 7.34364ZM13.3728 26.7338C9.68063 26.7338 6.6875 29.727 6.6875 33.4192C6.6875 36.8942 9.33885 39.75 12.729 40.0739L13.3728 40.1045L13.8832 40.0821L13.9049 39.967C14.0606 39.3031 14.2494 38.6519 14.4693 38.0151L14.9014 36.8808L15.3734 35.8298L15.6262 35.3247L16.21 34.2794L16.5996 33.6551L17.2459 32.7185L17.5728 32.2849L18.0563 31.6853L18.6311 31.0291L19.3001 30.3317C18.3657 28.5437 16.67 27.2572 14.6769 26.8616L14.0022 26.7633L13.3728 26.7338Z"/>
</mask>
<path d="M25.6354 64.6297C19.115 64.6297 13.7834 59.5396 13.3974 53.1161L13.375 52.3693L13.3728 46.792C5.98723 46.792 0 40.8048 0 33.4192C0 26.0336 5.98723 20.0463 13.3728 20.0463C18.162 20.0463 22.4307 22.5821 24.7967 26.4613C27.0801 25.3635 29.6116 24.6888 32.2839 24.5373L33.4375 24.5047H51.2684L52.3742 24.5347L53.471 24.6245L54.035 24.7008L54.5253 23.9553L55.1095 23.1627L47.1872 15.2405C44.0677 12.1211 43.7393 7.26739 46.2021 3.78281L46.6656 3.18273L47.1872 2.61486C50.4901 -0.688123 55.7373 -0.861963 59.245 2.09334L59.8128 2.61486L83.9434 26.7454C90.9077 33.7098 90.9077 45.0012 83.9434 51.9656C80.7324 55.1766 76.5177 56.9691 72.1647 57.1711L71.158 57.1894L70.348 57.1575L70.2314 57.4432C68.5136 61.229 64.9322 63.9589 60.6985 64.5222L59.8434 64.6056L59.0705 64.6297H25.6354ZM55.0841 7.34364C54.2092 6.46879 52.7908 6.46879 51.9159 7.34364C51.1383 8.12129 51.0519 9.32842 51.6567 10.2015L51.916 10.5118L64.4355 23.0317L61.5914 25.8923C60.6555 26.8282 59.8732 27.8732 59.2583 28.9973L58.8288 29.8547L57.6405 32.4577L54.8852 31.686C54.011 31.4412 53.1102 31.2858 52.1921 31.2234L51.2684 31.1922H33.4375C30.3201 31.1922 27.4517 32.2587 25.1775 34.0468L24.5391 34.5822L23.8029 35.29L23.3869 35.742L22.8929 36.3375L22.3531 37.0788L22.1651 37.3653C21.9836 37.6488 21.8124 37.9396 21.6523 38.2372L21.3954 38.7384L21.119 39.3482L20.9663 39.7242L20.738 40.3574L20.4956 41.1766C20.3819 41.6117 20.2899 42.0543 20.2204 42.503L20.1688 42.8729L20.0893 43.7129L20.0625 44.5672V52.3693C20.0625 55.2547 22.2554 57.628 25.0656 57.9134L25.6354 57.9422L44.5878 57.9405L44.5917 56.8426C44.5917 53.9572 42.3988 51.5839 39.5886 51.2985L39.0188 51.2697H34.5605C32.7138 51.2697 31.2167 49.7727 31.2167 47.926C31.2167 46.2332 32.4747 44.8341 34.1067 44.6127L34.5605 44.5822H39.0188C45.5393 44.5822 50.8708 49.6723 51.2568 56.0958L51.2792 56.8426L51.2753 57.9405L59.0705 57.9422C61.7101 57.9422 63.9501 56.0963 64.5024 53.5937L64.5944 53.0478L65.0348 49.302L68.7008 50.1881C72.456 51.0958 76.4337 50.0177 79.2146 47.2368C83.3781 43.0733 83.5591 36.4355 79.7577 32.0568L79.2146 31.4742L55.0841 7.34364ZM13.3728 26.7338C9.68063 26.7338 6.6875 29.727 6.6875 33.4192C6.6875 36.8942 9.33885 39.75 12.729 40.0739L13.3728 40.1045L13.8832 40.0821L13.9049 39.967C14.0606 39.3031 14.2494 38.6519 14.4693 38.0151L14.9014 36.8808L15.3734 35.8298L15.6262 35.3247L16.21 34.2794L16.5996 33.6551L17.2459 32.7185L17.5728 32.2849L18.0563 31.6853L18.6311 31.0291L19.3001 30.3317C18.3657 28.5437 16.67 27.2572 14.6769 26.8616L14.0022 26.7633L13.3728 26.7338Z" fill="#5C73A1" stroke="white" stroke-width="3" mask="url(#path-1-inside-1_112_4892)"/>
</svg>
