<svg width="430" height="148" viewBox="0 0 430 148" fill="none" xmlns="http://www.w3.org/2000/svg">
<rect x="0.5" y="0.5" width="429" height="147" rx="4.5" stroke="#8A38F5" stroke-dasharray="10 5"/>
<path d="M393.389 25.8333H390.833V28.3889H393.389V25.8333Z" fill="#5C73A1"/>
<path fill-rule="evenodd" clip-rule="evenodd" d="M387 24.875C387 23.2872 388.287 22 389.875 22H394.347C395.935 22 397.222 23.2872 397.222 24.875V29.3472C397.222 30.935 395.935 32.2222 394.347 32.2222H389.875C388.287 32.2222 387 30.935 387 29.3472V24.875ZM389.875 23.9167C389.346 23.9167 388.917 24.3457 388.917 24.875V29.3472C388.917 29.8765 389.346 30.3056 389.875 30.3056H394.347C394.876 30.3056 395.306 29.8765 395.306 29.3472V24.875C395.306 24.3457 394.876 23.9167 394.347 23.9167H389.875Z" fill="#5C73A1"/>
<path d="M390.833 38.6111H393.389V41.1667H390.833V38.6111Z" fill="#5C73A1"/>
<path fill-rule="evenodd" clip-rule="evenodd" d="M387 37.6528C387 36.065 388.287 34.7778 389.875 34.7778H394.347C395.935 34.7778 397.222 36.065 397.222 37.6528V42.125C397.222 43.7128 395.935 45 394.347 45H389.875C388.287 45 387 43.7128 387 42.125V37.6528ZM389.875 36.6944C389.346 36.6944 388.917 37.1235 388.917 37.6528V42.125C388.917 42.6543 389.346 43.0833 389.875 43.0833H394.347C394.876 43.0833 395.306 42.6543 395.306 42.125V37.6528C395.306 37.1235 394.876 36.6944 394.347 36.6944H389.875Z" fill="#5C73A1"/>
<path d="M406.167 25.8333H403.611V28.3889H406.167V25.8333Z" fill="#5C73A1"/>
<path fill-rule="evenodd" clip-rule="evenodd" d="M402.653 22C401.065 22 399.778 23.2872 399.778 24.875V29.3472C399.778 30.935 401.065 32.2222 402.653 32.2222H407.125C408.713 32.2222 410 30.935 410 29.3472V24.875C410 23.2872 408.713 22 407.125 22H402.653ZM401.694 24.875C401.694 24.3457 402.124 23.9167 402.653 23.9167H407.125C407.654 23.9167 408.083 24.3457 408.083 24.875V29.3472C408.083 29.8765 407.654 30.3056 407.125 30.3056H402.653C402.124 30.3056 401.694 29.8765 401.694 29.3472V24.875Z" fill="#5C73A1"/>
<path d="M399.778 34.7778H403.292V38.2917H399.778V34.7778Z" fill="#5C73A1"/>
<path d="M406.486 38.2917H403.292V41.4861H399.778V45H403.292V41.4861H406.486V45H410V41.4861H406.486V38.2917Z" fill="#5C73A1"/>
<path d="M406.486 38.2917V34.7778H410V38.2917H406.486Z" fill="#5C73A1"/>
<path d="M32.5425 33.9155C32.5425 34.8507 32.4263 35.703 32.1938 36.4722C31.9614 37.2358 31.6073 37.8944 31.1313 38.4478C30.661 39.0011 30.0633 39.4272 29.3384 39.7261C28.6134 40.0194 27.7557 40.166 26.7651 40.166C25.7746 40.166 24.9168 40.0194 24.1919 39.7261C23.467 39.4272 22.8665 39.0011 22.3906 38.4478C21.9202 37.8944 21.5688 37.2331 21.3364 36.4639C21.104 35.6947 20.9878 34.8397 20.9878 33.8989C20.9878 32.6427 21.1925 31.5498 21.6021 30.6201C22.0171 29.6849 22.6535 28.96 23.5112 28.4453C24.369 27.9307 25.4591 27.6733 26.7817 27.6733C28.0988 27.6733 29.1807 27.9307 30.0273 28.4453C30.8796 28.96 31.5104 29.6849 31.9199 30.6201C32.335 31.5553 32.5425 32.6538 32.5425 33.9155ZM23.6855 33.9155C23.6855 34.7622 23.7907 35.4927 24.001 36.1069C24.2168 36.7157 24.5516 37.186 25.0054 37.5181C25.4591 37.8446 26.0457 38.0078 26.7651 38.0078C27.4956 38.0078 28.0877 37.8446 28.5415 37.5181C28.9953 37.186 29.3245 36.7157 29.5293 36.1069C29.7396 35.4927 29.8447 34.7622 29.8447 33.9155C29.8447 32.6427 29.6068 31.6411 29.1309 30.9106C28.6549 30.1802 27.8719 29.8149 26.7817 29.8149C26.0568 29.8149 25.4647 29.981 25.0054 30.313C24.5516 30.6395 24.2168 31.1099 24.001 31.7241C23.7907 32.3328 23.6855 33.0633 23.6855 33.9155ZM37.083 30.7197V34.1147C37.083 34.5187 37.1799 34.8231 37.3735 35.0278C37.5728 35.2271 37.8494 35.3267 38.2036 35.3267C38.6906 35.3267 39.1416 35.2713 39.5566 35.1606C39.9772 35.05 40.4006 34.9061 40.8267 34.729V30.7197H43.3584V40H40.8267V36.3145C40.4227 36.5247 39.9661 36.7184 39.457 36.8955C38.9535 37.0726 38.3779 37.1611 37.7305 37.1611C36.762 37.1611 35.9901 36.9149 35.4146 36.4224C34.839 35.9243 34.5513 35.1745 34.5513 34.1729V30.7197H37.083ZM49.8413 30.5454C50.6991 30.5454 51.4378 30.7114 52.0576 31.0435C52.6774 31.37 53.1561 31.8459 53.4937 32.4712C53.8312 33.0965 54 33.8602 54 34.7622V35.9907H48.0151C48.0428 36.7046 48.2559 37.2663 48.6543 37.6758C49.0583 38.0798 49.6172 38.2817 50.3311 38.2817C50.9232 38.2817 51.4655 38.2209 51.958 38.0991C52.4505 37.9774 52.9569 37.7948 53.4771 37.5513V39.5103C53.0177 39.7371 52.5363 39.9032 52.0327 40.0083C51.5347 40.1134 50.9287 40.166 50.2148 40.166C49.2852 40.166 48.4606 39.9945 47.7412 39.6514C47.0273 39.3083 46.4657 38.7853 46.0562 38.0825C45.6522 37.3797 45.4502 36.4943 45.4502 35.4263C45.4502 34.3416 45.6328 33.4396 45.998 32.7202C46.3688 31.9953 46.8835 31.453 47.542 31.0933C48.2005 30.728 48.967 30.5454 49.8413 30.5454ZM49.8579 32.3467C49.3654 32.3467 48.9559 32.5044 48.6294 32.8198C48.3084 33.1353 48.123 33.6305 48.0732 34.3057H51.626C51.6204 33.9294 51.5513 33.5946 51.4185 33.3013C51.2912 33.008 51.0975 32.7756 50.8374 32.604C50.5828 32.4325 50.2563 32.3467 49.8579 32.3467ZM61.2217 30.5454C62.2676 30.5454 63.1115 30.9521 63.7534 31.7656C64.4009 32.5791 64.7246 33.7716 64.7246 35.3433C64.7246 36.3947 64.5724 37.2801 64.2681 37.9995C63.9637 38.7134 63.5431 39.2529 63.0063 39.6182C62.4696 39.9834 61.8525 40.166 61.1553 40.166C60.707 40.166 60.3224 40.1107 60.0015 40C59.6805 39.8838 59.4066 39.7371 59.1797 39.5601C58.9528 39.3774 58.7563 39.1838 58.5903 38.979H58.4575C58.5018 39.2004 58.535 39.4272 58.5571 39.6597C58.5793 39.8921 58.5903 40.119 58.5903 40.3403V44.084H56.0586V30.7197H58.1172L58.4741 31.9233H58.5903C58.7563 31.6743 58.9583 31.4447 59.1963 31.2344C59.4342 31.0241 59.7192 30.8581 60.0513 30.7363C60.3888 30.609 60.779 30.5454 61.2217 30.5454ZM60.4082 32.5708C59.9655 32.5708 59.6141 32.6621 59.354 32.8447C59.0939 33.0273 58.903 33.3013 58.7812 33.6665C58.665 34.0317 58.6014 34.4938 58.5903 35.0527V35.3267C58.5903 35.9243 58.6457 36.4307 58.7563 36.8457C58.8726 37.2607 59.0635 37.5762 59.3291 37.792C59.6003 38.0078 59.971 38.1157 60.4414 38.1157C60.8288 38.1157 61.147 38.0078 61.396 37.792C61.645 37.5762 61.8304 37.2607 61.9521 36.8457C62.0794 36.4251 62.1431 35.9132 62.1431 35.3101C62.1431 34.4025 62.002 33.7191 61.7197 33.2598C61.4375 32.8005 61.0003 32.5708 60.4082 32.5708ZM70.6431 30.5454C71.5008 30.5454 72.2396 30.7114 72.8594 31.0435C73.4792 31.37 73.9578 31.8459 74.2954 32.4712C74.633 33.0965 74.8018 33.8602 74.8018 34.7622V35.9907H68.8169C68.8446 36.7046 69.0576 37.2663 69.4561 37.6758C69.86 38.0798 70.4189 38.2817 71.1328 38.2817C71.7249 38.2817 72.2673 38.2209 72.7598 38.0991C73.2523 37.9774 73.7586 37.7948 74.2788 37.5513V39.5103C73.8195 39.7371 73.3381 39.9032 72.8345 40.0083C72.3364 40.1134 71.7305 40.166 71.0166 40.166C70.0869 40.166 69.2624 39.9945 68.543 39.6514C67.8291 39.3083 67.2674 38.7853 66.8579 38.0825C66.4539 37.3797 66.252 36.4943 66.252 35.4263C66.252 34.3416 66.4346 33.4396 66.7998 32.7202C67.1706 31.9953 67.6852 31.453 68.3438 31.0933C69.0023 30.728 69.7687 30.5454 70.6431 30.5454ZM70.6597 32.3467C70.1672 32.3467 69.7576 32.5044 69.4312 32.8198C69.1102 33.1353 68.9248 33.6305 68.875 34.3057H72.4277C72.4222 33.9294 72.353 33.5946 72.2202 33.3013C72.0929 33.008 71.8993 32.7756 71.6392 32.604C71.3846 32.4325 71.0581 32.3467 70.6597 32.3467ZM85.2026 30.7197V38.1489H86.564V43.3286H84.2896V40H78.0474V43.3286H75.7729V38.1489H76.5532C76.9627 37.5236 77.3058 36.8097 77.5825 36.0073C77.8647 35.2049 78.0916 34.3555 78.2632 33.459C78.4403 32.557 78.5675 31.6439 78.645 30.7197H85.2026ZM82.6709 32.6206H80.77C80.6815 33.3068 80.568 33.9709 80.4297 34.6128C80.2969 35.2492 80.1309 35.8634 79.9316 36.4556C79.7324 37.0422 79.4889 37.6066 79.2012 38.1489H82.6709V32.6206ZM90.6812 34.3057H92.4658C93.4176 34.3057 94.2035 34.4053 94.8232 34.6045C95.443 34.8037 95.9051 35.1081 96.2095 35.5176C96.5138 35.9215 96.666 36.4307 96.666 37.0449C96.666 37.6426 96.5277 38.1628 96.251 38.6055C95.9743 39.0482 95.5343 39.3913 94.9312 39.6348C94.328 39.8783 93.5394 40 92.5654 40H88.1494V30.7197H90.6812V34.3057ZM94.1343 37.0781C94.1343 36.7184 93.9904 36.4583 93.7026 36.2979C93.4149 36.1374 92.986 36.0571 92.416 36.0571H90.6812V38.2485H92.4492C92.9417 38.2485 93.3457 38.16 93.6611 37.9829C93.9766 37.8003 94.1343 37.4987 94.1343 37.0781ZM106.386 30.5454C107.056 30.5454 107.681 30.634 108.262 30.811C108.843 30.9826 109.314 31.251 109.673 31.6162C110.033 31.9759 110.213 32.4408 110.213 33.0107C110.213 33.5697 110.044 34.0151 109.707 34.3472C109.369 34.6737 108.921 34.9089 108.362 35.0527V35.1357C108.755 35.2298 109.109 35.3571 109.424 35.5176C109.745 35.6781 110 35.8994 110.188 36.1816C110.376 36.4639 110.47 36.8346 110.47 37.2939C110.47 37.8086 110.307 38.2845 109.98 38.7217C109.654 39.1533 109.153 39.502 108.478 39.7676C107.808 40.0332 106.948 40.166 105.896 40.166C105.398 40.166 104.928 40.1439 104.485 40.0996C104.048 40.0553 103.647 39.9917 103.282 39.9087C102.917 39.8201 102.598 39.715 102.327 39.5933V37.5015C102.709 37.6785 103.179 37.8418 103.738 37.9912C104.303 38.1406 104.903 38.2153 105.54 38.2153C105.999 38.2153 106.414 38.1821 106.785 38.1157C107.161 38.0493 107.457 37.9386 107.673 37.7837C107.894 37.6232 108.005 37.4102 108.005 37.1445C108.005 36.8955 107.908 36.6908 107.714 36.5303C107.526 36.3643 107.236 36.2425 106.843 36.165C106.455 36.082 105.963 36.0405 105.365 36.0405H104.386V34.2891H105.315C106.157 34.2891 106.807 34.2199 107.266 34.0815C107.725 33.9432 107.955 33.6886 107.955 33.3179C107.955 33.019 107.808 32.7949 107.515 32.6455C107.222 32.4961 106.738 32.4214 106.062 32.4214C105.625 32.4214 105.144 32.474 104.618 32.5791C104.092 32.6787 103.6 32.8226 103.141 33.0107L102.394 31.2427C102.93 31.0379 103.511 30.8719 104.137 30.7446C104.768 30.6118 105.517 30.5454 106.386 30.5454ZM116.256 30.5288C117.501 30.5288 118.456 30.8 119.12 31.3423C119.784 31.8846 120.116 32.7091 120.116 33.8159V40H118.348L117.858 38.7383H117.792C117.526 39.0703 117.255 39.3415 116.978 39.5518C116.701 39.762 116.383 39.917 116.023 40.0166C115.664 40.1162 115.227 40.166 114.712 40.166C114.164 40.166 113.672 40.0609 113.234 39.8506C112.803 39.6403 112.462 39.3193 112.213 38.8877C111.964 38.4505 111.84 37.8971 111.84 37.2275C111.84 36.2425 112.186 35.5176 112.877 35.0527C113.569 34.5824 114.607 34.3223 115.99 34.2725L117.601 34.2227V33.8159C117.601 33.3289 117.473 32.972 117.219 32.7451C116.964 32.5182 116.61 32.4048 116.156 32.4048C115.708 32.4048 115.268 32.4684 114.836 32.5957C114.405 32.723 113.973 32.8835 113.542 33.0771L112.703 31.3672C113.196 31.1071 113.746 30.9023 114.355 30.7529C114.969 30.6035 115.603 30.5288 116.256 30.5288ZM117.601 35.7002L116.621 35.7334C115.802 35.7555 115.232 35.9022 114.911 36.1733C114.596 36.4445 114.438 36.8014 114.438 37.2441C114.438 37.6315 114.551 37.9082 114.778 38.0742C115.005 38.2347 115.301 38.3149 115.667 38.3149C116.209 38.3149 116.665 38.1545 117.036 37.8335C117.412 37.5125 117.601 37.056 117.601 36.4639V35.7002ZM128.815 30.7197H131.604L127.927 35.1689L131.928 40H129.056L125.262 35.2935V40H122.73V30.7197H125.262V35.2271L128.815 30.7197ZM137.058 30.5288C138.303 30.5288 139.257 30.8 139.921 31.3423C140.585 31.8846 140.917 32.7091 140.917 33.8159V40H139.149L138.66 38.7383H138.593C138.328 39.0703 138.056 39.3415 137.78 39.5518C137.503 39.762 137.185 39.917 136.825 40.0166C136.465 40.1162 136.028 40.166 135.514 40.166C134.966 40.166 134.473 40.0609 134.036 39.8506C133.604 39.6403 133.264 39.3193 133.015 38.8877C132.766 38.4505 132.642 37.8971 132.642 37.2275C132.642 36.2425 132.987 35.5176 133.679 35.0527C134.371 34.5824 135.409 34.3223 136.792 34.2725L138.402 34.2227V33.8159C138.402 33.3289 138.275 32.972 138.021 32.7451C137.766 32.5182 137.412 32.4048 136.958 32.4048C136.51 32.4048 136.07 32.4684 135.638 32.5957C135.207 32.723 134.775 32.8835 134.343 33.0771L133.505 31.3672C133.997 31.1071 134.548 30.9023 135.157 30.7529C135.771 30.6035 136.405 30.5288 137.058 30.5288ZM138.402 35.7002L137.423 35.7334C136.604 35.7555 136.034 35.9022 135.713 36.1733C135.397 36.4445 135.24 36.8014 135.24 37.2441C135.24 37.6315 135.353 37.9082 135.58 38.0742C135.807 38.2347 136.103 38.3149 136.468 38.3149C137.011 38.3149 137.467 38.1545 137.838 37.8335C138.214 37.5125 138.402 37.056 138.402 36.4639V35.7002ZM146.911 30.5454C147.58 30.5454 148.206 30.634 148.787 30.811C149.368 30.9826 149.838 31.251 150.198 31.6162C150.557 31.9759 150.737 32.4408 150.737 33.0107C150.737 33.5697 150.569 34.0151 150.231 34.3472C149.893 34.6737 149.445 34.9089 148.886 35.0527V35.1357C149.279 35.2298 149.633 35.3571 149.949 35.5176C150.27 35.6781 150.524 35.8994 150.712 36.1816C150.901 36.4639 150.995 36.8346 150.995 37.2939C150.995 37.8086 150.831 38.2845 150.505 38.7217C150.178 39.1533 149.678 39.502 149.002 39.7676C148.333 40.0332 147.472 40.166 146.421 40.166C145.923 40.166 145.452 40.1439 145.01 40.0996C144.573 40.0553 144.171 39.9917 143.806 39.9087C143.441 39.8201 143.123 39.715 142.852 39.5933V37.5015C143.233 37.6785 143.704 37.8418 144.263 37.9912C144.827 38.1406 145.428 38.2153 146.064 38.2153C146.523 38.2153 146.938 38.1821 147.309 38.1157C147.685 38.0493 147.981 37.9386 148.197 37.7837C148.419 37.6232 148.529 37.4102 148.529 37.1445C148.529 36.8955 148.432 36.6908 148.239 36.5303C148.051 36.3643 147.76 36.2425 147.367 36.165C146.98 36.082 146.487 36.0405 145.89 36.0405H144.91V34.2891H145.84C146.681 34.2891 147.331 34.2199 147.791 34.0815C148.25 33.9432 148.479 33.6886 148.479 33.3179C148.479 33.019 148.333 32.7949 148.04 32.6455C147.746 32.4961 147.262 32.4214 146.587 32.4214C146.15 32.4214 145.668 32.474 145.143 32.5791C144.617 32.6787 144.124 32.8226 143.665 33.0107L142.918 31.2427C143.455 31.0379 144.036 30.8719 144.661 30.7446C145.292 30.6118 146.042 30.5454 146.911 30.5454ZM161.412 35.3433C161.412 36.118 161.307 36.8042 161.097 37.4019C160.892 37.9995 160.59 38.5059 160.192 38.9209C159.799 39.3304 159.323 39.6403 158.764 39.8506C158.211 40.0609 157.585 40.166 156.888 40.166C156.235 40.166 155.635 40.0609 155.087 39.8506C154.545 39.6403 154.071 39.3304 153.667 38.9209C153.269 38.5059 152.959 37.9995 152.738 37.4019C152.522 36.8042 152.414 36.118 152.414 35.3433C152.414 34.314 152.597 33.4424 152.962 32.7285C153.327 32.0146 153.847 31.4723 154.522 31.1016C155.198 30.7308 156.003 30.5454 156.938 30.5454C157.807 30.5454 158.576 30.7308 159.246 31.1016C159.921 31.4723 160.449 32.0146 160.831 32.7285C161.218 33.4424 161.412 34.314 161.412 35.3433ZM154.996 35.3433C154.996 35.952 155.062 36.4639 155.195 36.8789C155.328 37.2939 155.535 37.6066 155.817 37.8169C156.1 38.0272 156.468 38.1323 156.921 38.1323C157.37 38.1323 157.732 38.0272 158.009 37.8169C158.291 37.6066 158.496 37.2939 158.623 36.8789C158.756 36.4639 158.822 35.952 158.822 35.3433C158.822 34.729 158.756 34.2199 158.623 33.8159C158.496 33.4064 158.291 33.0993 158.009 32.8945C157.727 32.6898 157.359 32.5874 156.905 32.5874C156.235 32.5874 155.748 32.8171 155.444 33.2764C155.145 33.7357 154.996 34.4246 154.996 35.3433ZM171.73 33.1519C171.73 33.6499 171.572 34.076 171.257 34.4302C170.947 34.7788 170.488 35.0029 169.879 35.1025V35.1689C170.521 35.2464 171.038 35.4705 171.431 35.8413C171.824 36.2065 172.021 36.6686 172.021 37.2275C172.021 37.7588 171.882 38.2347 171.605 38.6553C171.329 39.0703 170.889 39.3996 170.286 39.6431C169.682 39.881 168.894 40 167.92 40H163.504V30.7197H167.92C168.645 30.7197 169.295 30.7972 169.871 30.9521C170.446 31.1016 170.9 31.3534 171.232 31.7075C171.564 32.0617 171.73 32.5431 171.73 33.1519ZM169.397 37.0947C169.397 36.7295 169.254 36.4666 168.966 36.3062C168.684 36.1401 168.263 36.0571 167.704 36.0571H166.036V38.2485H167.754C168.23 38.2485 168.623 38.16 168.933 37.9829C169.243 37.8058 169.397 37.5098 169.397 37.0947ZM169.165 33.3511C169.165 33.0633 169.052 32.8503 168.825 32.7119C168.598 32.5736 168.263 32.5044 167.82 32.5044H166.036V34.3389H167.53C168.067 34.3389 168.473 34.2614 168.75 34.1064C169.027 33.9515 169.165 33.6997 169.165 33.3511ZM181.143 30.7197V34.2891H184.679V30.7197H187.211V40H184.679V36.1733H181.143V40H178.611V30.7197H181.143ZM193.669 30.5288C194.914 30.5288 195.869 30.8 196.533 31.3423C197.197 31.8846 197.529 32.7091 197.529 33.8159V40H195.761L195.271 38.7383H195.205C194.939 39.0703 194.668 39.3415 194.391 39.5518C194.114 39.762 193.796 39.917 193.437 40.0166C193.077 40.1162 192.64 40.166 192.125 40.166C191.577 40.166 191.085 40.0609 190.647 39.8506C190.216 39.6403 189.875 39.3193 189.626 38.8877C189.377 38.4505 189.253 37.8971 189.253 37.2275C189.253 36.2425 189.599 35.5176 190.291 35.0527C190.982 34.5824 192.02 34.3223 193.403 34.2725L195.014 34.2227V33.8159C195.014 33.3289 194.886 32.972 194.632 32.7451C194.377 32.5182 194.023 32.4048 193.569 32.4048C193.121 32.4048 192.681 32.4684 192.25 32.5957C191.818 32.723 191.386 32.8835 190.955 33.0771L190.116 31.3672C190.609 31.1071 191.159 30.9023 191.768 30.7529C192.382 30.6035 193.016 30.5288 193.669 30.5288ZM195.014 35.7002L194.034 35.7334C193.215 35.7555 192.645 35.9022 192.324 36.1733C192.009 36.4445 191.851 36.8014 191.851 37.2441C191.851 37.6315 191.965 37.9082 192.191 38.0742C192.418 38.2347 192.714 38.3149 193.08 38.3149C193.622 38.3149 194.078 38.1545 194.449 37.8335C194.826 37.5125 195.014 37.056 195.014 36.4639V35.7002ZM208.328 40.166C207.41 40.166 206.626 40 205.979 39.668C205.332 39.3304 204.839 38.8102 204.501 38.1074C204.164 37.4046 203.995 36.5054 203.995 35.4097C203.995 34.2752 204.186 33.3511 204.568 32.6372C204.955 31.9178 205.489 31.3893 206.17 31.0518C206.856 30.7142 207.65 30.5454 208.552 30.5454C209.194 30.5454 209.748 30.609 210.212 30.7363C210.683 30.8581 211.092 31.0047 211.441 31.1763L210.694 33.1353C210.295 32.9748 209.925 32.8447 209.582 32.7451C209.238 32.64 208.895 32.5874 208.552 32.5874C208.11 32.5874 207.742 32.6925 207.448 32.9028C207.155 33.1076 206.936 33.4175 206.792 33.8325C206.649 34.2476 206.577 34.7677 206.577 35.3931C206.577 36.0073 206.654 36.5164 206.809 36.9204C206.964 37.3244 207.188 37.626 207.481 37.8252C207.775 38.0189 208.132 38.1157 208.552 38.1157C209.078 38.1157 209.546 38.0465 209.955 37.9082C210.365 37.7643 210.763 37.5651 211.15 37.3105V39.4771C210.763 39.7205 210.356 39.8949 209.93 40C209.51 40.1107 208.976 40.166 208.328 40.166ZM212.744 34.4385C212.744 33.0716 212.913 31.9095 213.25 30.9521C213.588 29.9948 214.125 29.2311 214.861 28.6611C215.597 28.0856 216.562 27.6955 217.758 27.4907C218.355 27.3856 218.961 27.2998 219.576 27.2334C220.195 27.1615 220.837 27.0812 221.501 26.9927L221.792 29.209C221.504 29.2422 221.192 29.2782 220.854 29.3169C220.516 29.3556 220.176 29.3971 219.833 29.4414C219.49 29.4801 219.158 29.5216 218.837 29.5659C218.516 29.6047 218.225 29.6434 217.965 29.6821C217.401 29.7707 216.931 29.909 216.554 30.0972C216.178 30.2853 215.89 30.5841 215.691 30.9937C215.492 31.4032 215.37 31.9925 215.326 32.7617H215.45C215.583 32.5514 215.771 32.3384 216.015 32.1226C216.258 31.9012 216.56 31.7186 216.919 31.5747C217.279 31.4253 217.694 31.3506 218.165 31.3506C218.906 31.3506 219.548 31.5028 220.09 31.8071C220.633 32.1115 221.05 32.5653 221.344 33.1685C221.643 33.7661 221.792 34.5132 221.792 35.4097C221.792 36.4611 221.598 37.341 221.211 38.0493C220.829 38.7521 220.298 39.2806 219.617 39.6348C218.937 39.9889 218.148 40.166 217.251 40.166C216.565 40.166 215.945 40.0415 215.392 39.7925C214.839 39.5435 214.363 39.1755 213.964 38.6885C213.571 38.2015 213.27 37.6038 213.06 36.8955C212.849 36.1816 212.744 35.3626 212.744 34.4385ZM217.401 38.1157C217.761 38.1157 218.073 38.0382 218.339 37.8833C218.61 37.7228 218.82 37.4627 218.97 37.103C219.125 36.7378 219.202 36.248 219.202 35.6338C219.202 34.8923 219.078 34.3056 218.829 33.874C218.585 33.4368 218.167 33.2183 217.575 33.2183C217.215 33.2183 216.878 33.3068 216.562 33.4839C216.253 33.6554 215.99 33.8547 215.774 34.0815C215.558 34.3029 215.409 34.491 215.326 34.646C215.326 35.0832 215.359 35.5093 215.425 35.9243C215.497 36.3338 215.611 36.7046 215.766 37.0366C215.921 37.3687 216.131 37.6315 216.396 37.8252C216.668 38.0189 217.002 38.1157 217.401 38.1157ZM232.317 35.3433C232.317 36.118 232.212 36.8042 232.002 37.4019C231.797 37.9995 231.496 38.5059 231.097 38.9209C230.704 39.3304 230.228 39.6403 229.669 39.8506C229.116 40.0609 228.491 40.166 227.793 40.166C227.14 40.166 226.54 40.0609 225.992 39.8506C225.45 39.6403 224.977 39.3304 224.573 38.9209C224.174 38.5059 223.864 37.9995 223.643 37.4019C223.427 36.8042 223.319 36.118 223.319 35.3433C223.319 34.314 223.502 33.4424 223.867 32.7285C224.232 32.0146 224.753 31.4723 225.428 31.1016C226.103 30.7308 226.908 30.5454 227.843 30.5454C228.712 30.5454 229.481 30.7308 230.151 31.1016C230.826 31.4723 231.354 32.0146 231.736 32.7285C232.124 33.4424 232.317 34.314 232.317 35.3433ZM225.901 35.3433C225.901 35.952 225.967 36.4639 226.1 36.8789C226.233 37.2939 226.44 37.6066 226.723 37.8169C227.005 38.0272 227.373 38.1323 227.827 38.1323C228.275 38.1323 228.637 38.0272 228.914 37.8169C229.196 37.6066 229.401 37.2939 229.528 36.8789C229.661 36.4639 229.728 35.952 229.728 35.3433C229.728 34.729 229.661 34.2199 229.528 33.8159C229.401 33.4064 229.196 33.0993 228.914 32.8945C228.632 32.6898 228.264 32.5874 227.81 32.5874C227.14 32.5874 226.653 32.8171 226.349 33.2764C226.05 33.7357 225.901 34.4246 225.901 35.3433ZM239.572 30.5454C240.618 30.5454 241.462 30.9521 242.104 31.7656C242.751 32.5791 243.075 33.7716 243.075 35.3433C243.075 36.3947 242.923 37.2801 242.619 37.9995C242.314 38.7134 241.894 39.2529 241.357 39.6182C240.82 39.9834 240.203 40.166 239.506 40.166C239.058 40.166 238.673 40.1107 238.352 40C238.031 39.8838 237.757 39.7371 237.53 39.5601C237.303 39.3774 237.107 39.1838 236.941 38.979H236.808C236.852 39.2004 236.886 39.4272 236.908 39.6597C236.93 39.8921 236.941 40.119 236.941 40.3403V44.084H234.409V30.7197H236.468L236.825 31.9233H236.941C237.107 31.6743 237.309 31.4447 237.547 31.2344C237.785 31.0241 238.07 30.8581 238.402 30.7363C238.739 30.609 239.13 30.5454 239.572 30.5454ZM238.759 32.5708C238.316 32.5708 237.965 32.6621 237.705 32.8447C237.444 33.0273 237.254 33.3013 237.132 33.6665C237.016 34.0317 236.952 34.4938 236.941 35.0527V35.3267C236.941 35.9243 236.996 36.4307 237.107 36.8457C237.223 37.2607 237.414 37.5762 237.68 37.792C237.951 38.0078 238.322 38.1157 238.792 38.1157C239.179 38.1157 239.498 38.0078 239.747 37.792C239.996 37.5762 240.181 37.2607 240.303 36.8457C240.43 36.4251 240.494 35.9132 240.494 35.3101C240.494 34.4025 240.353 33.7191 240.07 33.2598C239.788 32.8005 239.351 32.5708 238.759 32.5708ZM251.251 30.7197H254.041L250.363 35.1689L254.364 40H251.492L247.699 35.2935V40H245.167V30.7197H247.699V35.2271L251.251 30.7197ZM254.364 30.7197H257.137L258.888 35.9409C258.944 36.1069 258.991 36.2757 259.029 36.4473C259.068 36.6188 259.101 36.7959 259.129 36.9785C259.157 37.1611 259.179 37.3521 259.195 37.5513H259.245C259.278 37.2524 259.323 36.973 259.378 36.7129C259.439 36.4528 259.514 36.1955 259.602 35.9409L261.32 30.7197H264.035L260.108 41.187C259.87 41.8289 259.561 42.363 259.179 42.7891C258.797 43.2207 258.357 43.5444 257.859 43.7603C257.366 43.9761 256.824 44.084 256.232 44.084C255.944 44.084 255.695 44.0674 255.485 44.0342C255.275 44.0065 255.095 43.9761 254.945 43.9429V41.9341C255.062 41.9618 255.208 41.9867 255.385 42.0088C255.562 42.0309 255.748 42.042 255.941 42.042C256.296 42.042 256.6 41.9673 256.854 41.8179C257.109 41.6685 257.322 41.4665 257.494 41.2119C257.665 40.9629 257.801 40.689 257.9 40.3901L258.05 39.9336L254.364 30.7197Z" fill="#081A3F"/>
<rect x="20" y="63" width="390" height="1" rx="0.5" fill="#5C73A1"/>
<path d="M304.041 26.0436C304.334 26.4279 304.26 26.9769 303.876 27.27C301.79 28.8612 300.542 31.3264 300.542 34.0002C300.542 38.3588 303.839 41.9474 308.075 42.4084L307.285 41.6189C306.944 41.2772 306.944 40.7232 307.285 40.3814C307.596 40.0708 308.082 40.0426 308.425 40.2967L308.523 40.3814L310.856 42.7148C311.167 43.0254 311.195 43.5115 310.941 43.8541L310.856 43.9522L308.523 46.2856C308.181 46.6273 307.627 46.6273 307.285 46.2856C306.975 45.9749 306.947 45.4888 307.201 45.1463L307.285 45.0481L308.161 44.1745C302.915 43.7476 298.792 39.3555 298.792 34.0002C298.792 30.7746 300.299 27.7972 302.815 25.8785C303.199 25.5854 303.748 25.6594 304.041 26.0436ZM310.715 21.7148C311.056 22.0565 311.056 22.6105 310.715 22.9522L309.841 23.8259C315.085 24.2534 319.208 28.6453 319.208 34.0002C319.208 37.0854 317.83 39.9471 315.497 41.8741C315.125 42.1819 314.573 42.1293 314.266 41.7568C313.958 41.3842 314.01 40.8327 314.383 40.5249C316.317 38.9269 317.458 36.5577 317.458 34.0002C317.458 29.6419 314.162 26.0535 309.927 25.592L310.715 26.3814C311.056 26.7232 311.056 27.2772 310.715 27.6189C310.373 27.9606 309.819 27.9606 309.477 27.6189L307.144 25.2855C306.802 24.9438 306.802 24.3898 307.144 24.0481L309.477 21.7148C309.819 21.3731 310.373 21.3731 310.715 21.7148Z" fill="#5C73A1"/>
<path d="M72.4717 105H69.9067V99.7622H65.1006V105H62.5273V92.8643H65.1006V97.6206H69.9067V92.8643H72.4717V105ZM79.1455 95.5288C80.3906 95.5288 81.3452 95.8 82.0093 96.3423C82.6733 96.8846 83.0054 97.7091 83.0054 98.8159V105H81.2373L80.7476 103.738H80.6812C80.4155 104.07 80.1444 104.341 79.8677 104.552C79.591 104.762 79.2728 104.917 78.9131 105.017C78.5534 105.116 78.1162 105.166 77.6016 105.166C77.0537 105.166 76.5612 105.061 76.124 104.851C75.6924 104.64 75.3521 104.319 75.103 103.888C74.854 103.451 74.7295 102.897 74.7295 102.228C74.7295 101.243 75.0754 100.518 75.7671 100.053C76.4588 99.5824 77.4964 99.3223 78.8799 99.2725L80.4902 99.2227V98.8159C80.4902 98.3289 80.363 97.972 80.1084 97.7451C79.8538 97.5182 79.4997 97.4048 79.0459 97.4048C78.5977 97.4048 78.1577 97.4684 77.7261 97.5957C77.2944 97.723 76.8628 97.8835 76.4312 98.0771L75.5928 96.3672C76.0853 96.1071 76.6359 95.9023 77.2446 95.7529C77.8589 95.6035 78.4925 95.5288 79.1455 95.5288ZM80.4902 100.7L79.5107 100.733C78.6917 100.756 78.1217 100.902 77.8008 101.173C77.4854 101.444 77.3276 101.801 77.3276 102.244C77.3276 102.632 77.4411 102.908 77.668 103.074C77.8949 103.235 78.1909 103.315 78.5562 103.315C79.0985 103.315 79.555 103.154 79.9258 102.833C80.3021 102.513 80.4902 102.056 80.4902 101.464V100.7ZM88.9985 95.5454C89.6681 95.5454 90.2935 95.634 90.8745 95.811C91.4556 95.9826 91.9259 96.251 92.2856 96.6162C92.6453 96.9759 92.8252 97.4408 92.8252 98.0107C92.8252 98.5697 92.6564 99.0151 92.3188 99.3472C91.9813 99.6737 91.533 99.9089 90.9741 100.053V100.136C91.367 100.23 91.7212 100.357 92.0366 100.518C92.3576 100.678 92.6121 100.899 92.8003 101.182C92.9884 101.464 93.0825 101.835 93.0825 102.294C93.0825 102.809 92.9193 103.285 92.5928 103.722C92.2663 104.153 91.7655 104.502 91.0903 104.768C90.4207 105.033 89.5602 105.166 88.5088 105.166C88.0107 105.166 87.5404 105.144 87.0977 105.1C86.6605 105.055 86.2593 104.992 85.894 104.909C85.5288 104.82 85.2106 104.715 84.9395 104.593V102.501C85.3213 102.679 85.7917 102.842 86.3506 102.991C86.915 103.141 87.5155 103.215 88.1519 103.215C88.6112 103.215 89.0262 103.182 89.397 103.116C89.7733 103.049 90.0693 102.939 90.2852 102.784C90.5065 102.623 90.6172 102.41 90.6172 102.145C90.6172 101.896 90.5203 101.691 90.3267 101.53C90.1385 101.364 89.848 101.243 89.4551 101.165C89.0677 101.082 88.5752 101.041 87.9775 101.041H86.998V99.2891H87.9277C88.7689 99.2891 89.4191 99.2199 89.8784 99.0815C90.3377 98.9432 90.5674 98.6886 90.5674 98.3179C90.5674 98.019 90.4207 97.7949 90.1274 97.6455C89.8341 97.4961 89.3499 97.4214 88.6748 97.4214C88.2376 97.4214 87.7562 97.474 87.2305 97.5791C86.7048 97.6787 86.2122 97.8226 85.7529 98.0107L85.0059 96.2427C85.5426 96.0379 86.1237 95.8719 86.749 95.7446C87.3799 95.6118 88.1297 95.5454 88.9985 95.5454ZM98.8682 95.5288C100.113 95.5288 101.068 95.8 101.732 96.3423C102.396 96.8846 102.728 97.7091 102.728 98.8159V105H100.96L100.47 103.738H100.404C100.138 104.07 99.867 104.341 99.5903 104.552C99.3136 104.762 98.9954 104.917 98.6357 105.017C98.276 105.116 97.8389 105.166 97.3242 105.166C96.7764 105.166 96.2839 105.061 95.8467 104.851C95.415 104.64 95.0747 104.319 94.8257 103.888C94.5767 103.451 94.4521 102.897 94.4521 102.228C94.4521 101.243 94.798 100.518 95.4897 100.053C96.1815 99.5824 97.2191 99.3223 98.6025 99.2725L100.213 99.2227V98.8159C100.213 98.3289 100.086 97.972 99.8311 97.7451C99.5765 97.5182 99.2223 97.4048 98.7686 97.4048C98.3203 97.4048 97.8804 97.4684 97.4487 97.5957C97.0171 97.723 96.5854 97.8835 96.1538 98.0771L95.3154 96.3672C95.8079 96.1071 96.3586 95.9023 96.9673 95.7529C97.5815 95.6035 98.2152 95.5288 98.8682 95.5288ZM100.213 100.7L99.2334 100.733C98.4144 100.756 97.8444 100.902 97.5234 101.173C97.208 101.444 97.0503 101.801 97.0503 102.244C97.0503 102.632 97.1637 102.908 97.3906 103.074C97.6175 103.235 97.9136 103.315 98.2788 103.315C98.8211 103.315 99.2777 103.154 99.6484 102.833C100.025 102.513 100.213 102.056 100.213 101.464V100.7ZM113.685 95.7197V103.149H115.046V108.329H112.772V105H106.53V108.329H104.255V103.149H105.036C105.445 102.524 105.788 101.81 106.065 101.007C106.347 100.205 106.574 99.3555 106.746 98.459C106.923 97.557 107.05 96.6439 107.127 95.7197H113.685ZM111.153 97.6206H109.252C109.164 98.3068 109.05 98.9709 108.912 99.6128C108.779 100.249 108.613 100.863 108.414 101.456C108.215 102.042 107.971 102.607 107.684 103.149H111.153V97.6206Z" fill="white"/>
<rect x="20" y="127" width="390" height="1" rx="0.5" fill="#5C73A1"/>
<path d="M35 84.501C26.7157 84.501 20 91.2167 20 99.501C20 107.785 26.7157 114.501 35 114.501C43.2843 114.501 50 107.785 50 99.501C50 91.2167 43.2843 84.501 35 84.501ZM35 86.751C42.0416 86.751 47.75 92.4593 47.75 99.501C47.75 106.543 42.0416 112.251 35 112.251C27.9584 112.251 22.25 106.543 22.25 99.501C22.25 92.4593 27.9584 86.751 35 86.751ZM35.5294 92.8306L35.4205 92.7044C35.0211 92.305 34.3961 92.2687 33.9557 92.5955L33.8295 92.7044L27.8283 98.7057C27.4288 99.1051 27.3926 99.7302 27.7195 100.171L27.8284 100.297L33.8307 106.297C34.2701 106.736 34.9824 106.736 35.4217 106.296C35.821 105.897 35.8572 105.272 35.5304 104.832L35.4214 104.706L31.3385 100.624L41.3761 100.625C41.9456 100.625 42.4163 100.202 42.4908 99.6526L42.5011 99.4999C42.5011 98.9304 42.0778 98.4597 41.5287 98.3852L41.3761 98.3749L31.3415 98.3745L35.4205 94.2954C35.8199 93.896 35.8562 93.271 35.5294 92.8306L35.4205 92.7044L35.5294 92.8306Z" fill="#0C58FE"/>
</svg>
