<svg width="390" height="210" viewBox="0 0 390 210" fill="none" xmlns="http://www.w3.org/2000/svg">
<rect x="0.5" y="0.5" width="389" height="209" rx="21.5" fill="#ECF2FF" stroke="#C4D7FF"/>
<rect x="297" y="33" width="73" height="21" rx="3" fill="#1590E8"/>
<path d="M305.318 39.8613H307.34C308.232 39.8613 308.902 39.9948 309.352 40.2617C309.801 40.5286 310.025 40.9827 310.025 41.624C310.025 41.9007 309.972 42.1497 309.864 42.3711C309.76 42.5892 309.607 42.7699 309.405 42.9131C309.203 43.0563 308.954 43.1556 308.658 43.2109V43.2598C308.971 43.3086 309.247 43.3981 309.488 43.5283C309.729 43.6585 309.918 43.8408 310.055 44.0752C310.191 44.3096 310.26 44.6074 310.26 44.9688C310.26 45.4082 310.157 45.7793 309.952 46.082C309.75 46.3848 309.464 46.6143 309.093 46.7705C308.722 46.9235 308.282 47 307.774 47H305.318V39.8613ZM306.148 42.9229H307.516C308.137 42.9229 308.567 42.8203 308.805 42.6152C309.046 42.4102 309.166 42.1107 309.166 41.7168C309.166 41.3099 309.023 41.0169 308.736 40.8379C308.453 40.6589 308.001 40.5693 307.379 40.5693H306.148V42.9229ZM306.148 43.6211V46.292H307.633C308.268 46.292 308.717 46.1683 308.98 45.9209C309.244 45.6702 309.376 45.3333 309.376 44.9102C309.376 44.64 309.316 44.4089 309.195 44.2168C309.078 44.0247 308.886 43.8783 308.619 43.7773C308.355 43.6732 308.002 43.6211 307.56 43.6211H306.148ZM313.648 39.8613C314.57 39.8613 315.242 40.042 315.665 40.4033C316.091 40.7614 316.305 41.2757 316.305 41.9463C316.305 42.249 316.254 42.5371 316.153 42.8105C316.056 43.0807 315.896 43.32 315.675 43.5283C315.453 43.7334 315.162 43.8962 314.801 44.0166C314.443 44.1338 314.003 44.1924 313.482 44.1924H312.613V47H311.783V39.8613H313.648ZM313.57 40.5693H312.613V43.4795H313.39C313.845 43.4795 314.225 43.4307 314.527 43.333C314.833 43.2354 315.063 43.0775 315.216 42.8594C315.369 42.638 315.445 42.3451 315.445 41.9805C315.445 41.5052 315.294 41.152 314.991 40.9209C314.688 40.6865 314.215 40.5693 313.57 40.5693ZM321.773 47H317.799V39.8613H321.773V40.5938H318.629V42.9033H321.593V43.626H318.629V46.2676H321.773V47ZM326.495 47L324.098 40.6816H324.059C324.072 40.8151 324.083 40.9779 324.093 41.1699C324.103 41.362 324.111 41.5719 324.117 41.7998C324.124 42.0244 324.127 42.2539 324.127 42.4883V47H323.355V39.8613H324.586L326.847 45.7988H326.881L329.176 39.8613H330.396V47H329.576V42.4297C329.576 42.2181 329.579 42.0065 329.586 41.7949C329.592 41.5801 329.601 41.3783 329.61 41.1895C329.62 40.9974 329.63 40.8314 329.64 40.6914H329.601L327.174 47H326.495ZM334.425 44.0166L332.569 47H331.598L333.595 43.8652C333.334 43.7839 333.09 43.6683 332.862 43.5186C332.638 43.3656 332.455 43.1556 332.315 42.8887C332.179 42.6217 332.11 42.2799 332.11 41.8633C332.11 41.2122 332.332 40.7158 332.774 40.374C333.22 40.0322 333.883 39.8613 334.762 39.8613H336.72V47H335.89V44.0166H334.425ZM335.89 40.5693H334.791C334.397 40.5693 334.063 40.6149 333.79 40.7061C333.52 40.7972 333.315 40.9404 333.175 41.1357C333.035 41.3311 332.965 41.5866 332.965 41.9023C332.965 42.3548 333.115 42.7031 333.414 42.9473C333.714 43.1882 334.171 43.3086 334.786 43.3086H335.89V40.5693ZM345.25 47H341.275V39.8613H345.25V40.5938H342.105V42.9033H345.069V43.626H342.105V46.2676H345.25V47ZM349.884 40.4912C349.49 40.4912 349.135 40.5596 348.819 40.6963C348.507 40.8298 348.24 41.0251 348.019 41.2822C347.8 41.5361 347.633 41.8438 347.516 42.2051C347.398 42.5664 347.34 42.9733 347.34 43.4258C347.34 44.0247 347.433 44.5456 347.618 44.9883C347.807 45.4277 348.087 45.7679 348.458 46.0088C348.832 46.2497 349.299 46.3701 349.859 46.3701C350.178 46.3701 350.478 46.3441 350.758 46.292C351.041 46.2367 351.316 46.1683 351.583 46.0869V46.8096C351.323 46.9072 351.049 46.9788 350.763 47.0244C350.476 47.0732 350.136 47.0977 349.742 47.0977C349.016 47.0977 348.409 46.9479 347.921 46.6484C347.436 46.3457 347.071 45.9193 346.827 45.3691C346.586 44.819 346.466 44.1696 346.466 43.4209C346.466 42.8805 346.541 42.3874 346.69 41.9414C346.843 41.4922 347.065 41.1048 347.354 40.7793C347.647 40.4538 348.006 40.2031 348.429 40.0273C348.855 39.8483 349.343 39.7588 349.894 39.7588C350.255 39.7588 350.603 39.7946 350.938 39.8662C351.274 39.9378 351.576 40.0404 351.847 40.1738L351.515 40.877C351.287 40.7728 351.036 40.6833 350.763 40.6084C350.493 40.5303 350.2 40.4912 349.884 40.4912ZM355.323 47H354.488V40.5938H352.242V39.8613H357.56V40.5938H355.323V47ZM358.639 47V39.8613H359.469V42.8984H360.826C361.471 42.8984 361.987 42.9863 362.374 43.1621C362.765 43.3346 363.046 43.5739 363.219 43.8799C363.395 44.1826 363.482 44.5277 363.482 44.915C363.482 45.5531 363.272 46.0609 362.853 46.4385C362.433 46.8128 361.795 47 360.938 47H358.639ZM359.469 46.2871H360.851C361.443 46.2871 361.887 46.1748 362.184 45.9502C362.48 45.7223 362.628 45.3773 362.628 44.915C362.628 44.5928 362.555 44.3372 362.408 44.1484C362.262 43.9596 362.047 43.8245 361.764 43.7432C361.484 43.6618 361.137 43.6211 360.724 43.6211H359.469V46.2871Z" fill="white"/>
<path d="M162.957 106.36C162.957 107.109 162.898 107.778 162.779 108.366C162.665 108.954 162.479 109.453 162.221 109.864C161.967 110.274 161.632 110.587 161.218 110.803C160.803 111.019 160.299 111.127 159.707 111.127C158.962 111.127 158.351 110.939 157.873 110.562C157.394 110.181 157.041 109.635 156.812 108.924C156.584 108.209 156.47 107.354 156.47 106.36C156.47 105.357 156.573 104.5 156.781 103.789C156.992 103.074 157.335 102.526 157.809 102.145C158.283 101.764 158.916 101.574 159.707 101.574C160.448 101.574 161.057 101.764 161.535 102.145C162.018 102.522 162.375 103.068 162.608 103.783C162.841 104.494 162.957 105.353 162.957 106.36ZM158.418 106.36C158.418 107.067 158.457 107.657 158.533 108.131C158.613 108.601 158.746 108.954 158.933 109.191C159.119 109.428 159.377 109.546 159.707 109.546C160.033 109.546 160.289 109.43 160.475 109.197C160.666 108.96 160.801 108.607 160.881 108.137C160.962 107.663 161.002 107.071 161.002 106.36C161.002 105.653 160.962 105.063 160.881 104.589C160.801 104.115 160.666 103.759 160.475 103.522C160.289 103.281 160.033 103.161 159.707 103.161C159.377 103.161 159.119 103.281 158.933 103.522C158.746 103.759 158.613 104.115 158.533 104.589C158.457 105.063 158.418 105.653 158.418 106.36ZM168.746 101.72L165.287 111H163.528L166.988 101.72H168.746ZM174.18 111H172.218V105.63C172.218 105.482 172.22 105.3 172.225 105.084C172.229 104.864 172.235 104.64 172.244 104.411C172.252 104.178 172.261 103.969 172.269 103.783C172.222 103.838 172.127 103.933 171.983 104.068C171.844 104.2 171.713 104.318 171.59 104.424L170.523 105.281L169.578 104.1L172.567 101.72H174.18V111ZM183.219 105.681C183.219 106.214 183.179 106.743 183.098 107.268C183.022 107.792 182.887 108.287 182.692 108.753C182.497 109.214 182.224 109.625 181.873 109.984C181.522 110.34 181.075 110.619 180.534 110.822C179.992 111.025 179.336 111.127 178.566 111.127C178.384 111.127 178.17 111.118 177.925 111.102C177.679 111.089 177.476 111.068 177.315 111.038V109.464C177.485 109.506 177.665 109.54 177.855 109.565C178.045 109.587 178.238 109.597 178.433 109.597C179.207 109.597 179.804 109.474 180.223 109.229C180.646 108.984 180.942 108.643 181.111 108.207C181.285 107.771 181.384 107.268 181.41 106.696H181.333C181.211 106.899 181.065 107.083 180.896 107.249C180.73 107.409 180.519 107.538 180.261 107.636C180.003 107.729 179.675 107.775 179.277 107.775C178.748 107.775 178.287 107.661 177.893 107.433C177.504 107.2 177.201 106.866 176.985 106.43C176.774 105.99 176.668 105.458 176.668 104.836C176.668 104.164 176.795 103.588 177.049 103.11C177.307 102.627 177.673 102.257 178.147 101.999C178.621 101.741 179.18 101.612 179.823 101.612C180.297 101.612 180.739 101.694 181.149 101.859C181.56 102.02 181.92 102.268 182.229 102.602C182.542 102.936 182.785 103.36 182.958 103.872C183.132 104.384 183.219 104.987 183.219 105.681ZM179.861 103.186C179.48 103.186 179.169 103.317 178.928 103.58C178.687 103.842 178.566 104.252 178.566 104.811C178.566 105.26 178.67 105.615 178.877 105.877C179.084 106.14 179.4 106.271 179.823 106.271C180.115 106.271 180.369 106.208 180.584 106.081C180.8 105.949 180.967 105.786 181.086 105.592C181.209 105.393 181.27 105.19 181.27 104.982C181.27 104.767 181.24 104.553 181.181 104.341C181.122 104.13 181.033 103.937 180.915 103.764C180.796 103.59 180.648 103.451 180.47 103.345C180.297 103.239 180.094 103.186 179.861 103.186Z" fill="#0A1017"/>
<path d="M101.12 111H100.034V102.672H97.1143V101.72H104.027V102.672H101.12V111ZM111.27 107.509C111.27 108.08 111.195 108.59 111.047 109.039C110.899 109.487 110.686 109.866 110.406 110.175C110.127 110.484 109.788 110.721 109.391 110.886C108.997 111.047 108.551 111.127 108.051 111.127C107.586 111.127 107.158 111.047 106.769 110.886C106.384 110.721 106.05 110.484 105.766 110.175C105.487 109.866 105.269 109.487 105.112 109.039C104.96 108.59 104.884 108.08 104.884 107.509C104.884 106.747 105.013 106.1 105.271 105.566C105.529 105.029 105.897 104.621 106.375 104.341C106.858 104.058 107.431 103.916 108.096 103.916C108.73 103.916 109.285 104.058 109.759 104.341C110.237 104.625 110.607 105.035 110.87 105.573C111.136 106.106 111.27 106.751 111.27 107.509ZM105.976 107.509C105.976 108.067 106.05 108.552 106.198 108.962C106.346 109.373 106.574 109.69 106.883 109.915C107.192 110.139 107.59 110.251 108.077 110.251C108.559 110.251 108.955 110.139 109.264 109.915C109.577 109.69 109.807 109.373 109.956 108.962C110.104 108.552 110.178 108.067 110.178 107.509C110.178 106.954 110.104 106.476 109.956 106.074C109.807 105.668 109.579 105.355 109.27 105.135C108.961 104.915 108.561 104.805 108.07 104.805C107.347 104.805 106.816 105.044 106.477 105.522C106.143 106 105.976 106.662 105.976 107.509ZM118.62 105.789C118.62 106.224 118.493 106.565 118.239 106.811C117.985 107.052 117.657 107.215 117.255 107.299V107.35C117.691 107.409 118.066 107.566 118.379 107.82C118.696 108.069 118.855 108.452 118.855 108.969C118.855 109.367 118.76 109.718 118.569 110.022C118.379 110.327 118.081 110.566 117.674 110.74C117.268 110.913 116.739 111 116.087 111H113.091V104.043H116.062C116.561 104.043 117.001 104.1 117.382 104.214C117.767 104.324 118.07 104.506 118.29 104.76C118.51 105.014 118.62 105.357 118.62 105.789ZM117.757 108.969C117.757 108.558 117.6 108.262 117.287 108.08C116.978 107.898 116.528 107.807 115.935 107.807H114.151V110.143H115.96C116.544 110.143 116.989 110.054 117.293 109.876C117.602 109.694 117.757 109.392 117.757 108.969ZM117.547 105.909C117.547 105.579 117.427 105.334 117.186 105.173C116.944 105.008 116.549 104.925 115.999 104.925H114.151V106.925H115.814C116.386 106.925 116.817 106.842 117.109 106.677C117.401 106.512 117.547 106.256 117.547 105.909ZM123.159 103.929C123.988 103.929 124.604 104.115 125.006 104.487C125.408 104.86 125.609 105.454 125.609 106.271V111H124.841L124.638 109.972H124.587C124.392 110.226 124.189 110.439 123.978 110.613C123.766 110.782 123.521 110.911 123.241 111C122.966 111.085 122.628 111.127 122.226 111.127C121.802 111.127 121.426 111.053 121.096 110.905C120.77 110.757 120.512 110.532 120.321 110.232C120.135 109.931 120.042 109.551 120.042 109.089C120.042 108.395 120.317 107.862 120.867 107.49C121.417 107.117 122.255 106.914 123.381 106.88L124.581 106.83V106.404C124.581 105.803 124.451 105.382 124.193 105.141C123.935 104.9 123.571 104.779 123.102 104.779C122.738 104.779 122.391 104.832 122.061 104.938C121.73 105.044 121.417 105.169 121.121 105.312L120.797 104.513C121.111 104.352 121.47 104.214 121.876 104.1C122.283 103.986 122.71 103.929 123.159 103.929ZM124.568 107.572L123.508 107.617C122.64 107.651 122.029 107.792 121.673 108.042C121.318 108.292 121.14 108.645 121.14 109.102C121.14 109.5 121.261 109.794 121.502 109.984C121.743 110.175 122.063 110.27 122.46 110.27C123.078 110.27 123.584 110.099 123.978 109.756C124.371 109.413 124.568 108.899 124.568 108.213V107.572ZM131.049 103.916C131.916 103.916 132.608 104.214 133.125 104.811C133.641 105.408 133.899 106.305 133.899 107.502C133.899 108.294 133.78 108.958 133.543 109.496C133.306 110.033 132.972 110.439 132.541 110.714C132.113 110.989 131.607 111.127 131.023 111.127C130.655 111.127 130.332 111.078 130.052 110.981C129.773 110.884 129.534 110.752 129.335 110.587C129.136 110.422 128.971 110.243 128.84 110.048H128.764C128.776 110.213 128.791 110.412 128.808 110.645C128.829 110.877 128.84 111.08 128.84 111.254V114.11H127.78V104.043H128.649L128.789 105.071H128.84C128.975 104.86 129.14 104.667 129.335 104.494C129.53 104.316 129.767 104.176 130.046 104.075C130.329 103.969 130.664 103.916 131.049 103.916ZM130.865 104.805C130.382 104.805 129.993 104.898 129.697 105.084C129.405 105.27 129.191 105.549 129.056 105.922C128.92 106.29 128.848 106.753 128.84 107.312V107.515C128.84 108.103 128.903 108.601 129.03 109.007C129.161 109.413 129.375 109.722 129.671 109.934C129.972 110.145 130.374 110.251 130.877 110.251C131.309 110.251 131.669 110.135 131.957 109.902C132.244 109.669 132.458 109.345 132.598 108.931C132.742 108.512 132.813 108.031 132.813 107.49C132.813 106.669 132.653 106.017 132.331 105.535C132.014 105.048 131.525 104.805 130.865 104.805ZM141.738 107.509C141.738 108.08 141.664 108.59 141.516 109.039C141.368 109.487 141.154 109.866 140.875 110.175C140.596 110.484 140.257 110.721 139.859 110.886C139.466 111.047 139.019 111.127 138.52 111.127C138.055 111.127 137.627 111.047 137.238 110.886C136.853 110.721 136.518 110.484 136.235 110.175C135.956 109.866 135.738 109.487 135.581 109.039C135.429 108.59 135.353 108.08 135.353 107.509C135.353 106.747 135.482 106.1 135.74 105.566C135.998 105.029 136.366 104.621 136.844 104.341C137.327 104.058 137.9 103.916 138.564 103.916C139.199 103.916 139.754 104.058 140.228 104.341C140.706 104.625 141.076 105.035 141.338 105.573C141.605 106.106 141.738 106.751 141.738 107.509ZM136.444 107.509C136.444 108.067 136.518 108.552 136.667 108.962C136.815 109.373 137.043 109.69 137.352 109.915C137.661 110.139 138.059 110.251 138.545 110.251C139.028 110.251 139.424 110.139 139.732 109.915C140.046 109.69 140.276 109.373 140.424 108.962C140.572 108.552 140.646 108.067 140.646 107.509C140.646 106.954 140.572 106.476 140.424 106.074C140.276 105.668 140.048 105.355 139.739 105.135C139.43 104.915 139.03 104.805 138.539 104.805C137.815 104.805 137.284 105.044 136.946 105.522C136.611 106 136.444 106.662 136.444 107.509ZM149.089 105.789C149.089 106.224 148.962 106.565 148.708 106.811C148.454 107.052 148.126 107.215 147.724 107.299V107.35C148.16 107.409 148.535 107.566 148.848 107.82C149.165 108.069 149.324 108.452 149.324 108.969C149.324 109.367 149.229 109.718 149.038 110.022C148.848 110.327 148.549 110.566 148.143 110.74C147.737 110.913 147.208 111 146.556 111H143.56V104.043H146.531C147.03 104.043 147.47 104.1 147.851 104.214C148.236 104.324 148.539 104.506 148.759 104.76C148.979 105.014 149.089 105.357 149.089 105.789ZM148.226 108.969C148.226 108.558 148.069 108.262 147.756 108.08C147.447 107.898 146.996 107.807 146.404 107.807H144.62V110.143H146.429C147.013 110.143 147.458 110.054 147.762 109.876C148.071 109.694 148.226 109.392 148.226 108.969ZM148.016 105.909C148.016 105.579 147.896 105.334 147.654 105.173C147.413 105.008 147.017 104.925 146.467 104.925H144.62V106.925H146.283C146.854 106.925 147.286 106.842 147.578 106.677C147.87 106.512 148.016 106.256 148.016 105.909Z" fill="#5C73A1"/>
<path d="M329.008 111H322.521V109.635L324.85 107.28C325.32 106.798 325.696 106.396 325.98 106.074C326.268 105.748 326.475 105.452 326.602 105.186C326.733 104.919 326.799 104.633 326.799 104.329C326.799 103.96 326.695 103.685 326.488 103.503C326.285 103.317 326.012 103.224 325.669 103.224C325.309 103.224 324.96 103.307 324.622 103.472C324.283 103.637 323.93 103.872 323.562 104.176L322.495 102.913C322.762 102.685 323.043 102.469 323.339 102.266C323.64 102.062 323.987 101.9 324.38 101.777C324.778 101.65 325.254 101.586 325.809 101.586C326.418 101.586 326.941 101.696 327.376 101.917C327.817 102.137 328.155 102.437 328.392 102.818C328.629 103.194 328.748 103.622 328.748 104.1C328.748 104.612 328.646 105.08 328.443 105.503C328.24 105.926 327.944 106.345 327.554 106.76C327.169 107.174 326.704 107.634 326.158 108.137L324.964 109.261V109.35H329.008V111ZM339.786 105.681C339.786 106.214 339.746 106.743 339.666 107.268C339.589 107.792 339.454 108.287 339.259 108.753C339.065 109.214 338.792 109.625 338.44 109.984C338.089 110.34 337.643 110.619 337.101 110.822C336.559 111.025 335.903 111.127 335.133 111.127C334.951 111.127 334.738 111.118 334.492 111.102C334.247 111.089 334.044 111.068 333.883 111.038V109.464C334.052 109.506 334.232 109.54 334.422 109.565C334.613 109.587 334.805 109.597 335 109.597C335.774 109.597 336.371 109.474 336.79 109.229C337.213 108.984 337.509 108.643 337.679 108.207C337.852 107.771 337.952 107.268 337.977 106.696H337.901C337.778 106.899 337.632 107.083 337.463 107.249C337.298 107.409 337.086 107.538 336.828 107.636C336.57 107.729 336.242 107.775 335.844 107.775C335.315 107.775 334.854 107.661 334.46 107.433C334.071 107.2 333.769 106.866 333.553 106.43C333.341 105.99 333.235 105.458 333.235 104.836C333.235 104.164 333.362 103.588 333.616 103.11C333.874 102.627 334.24 102.257 334.714 101.999C335.188 101.741 335.747 101.612 336.39 101.612C336.864 101.612 337.306 101.694 337.717 101.859C338.127 102.02 338.487 102.268 338.796 102.602C339.109 102.936 339.352 103.36 339.526 103.872C339.699 104.384 339.786 104.987 339.786 105.681ZM336.428 103.186C336.047 103.186 335.736 103.317 335.495 103.58C335.254 103.842 335.133 104.252 335.133 104.811C335.133 105.26 335.237 105.615 335.444 105.877C335.652 106.14 335.967 106.271 336.39 106.271C336.682 106.271 336.936 106.208 337.152 106.081C337.368 105.949 337.535 105.786 337.653 105.592C337.776 105.393 337.837 105.19 337.837 104.982C337.837 104.767 337.808 104.553 337.749 104.341C337.689 104.13 337.6 103.937 337.482 103.764C337.363 103.59 337.215 103.451 337.038 103.345C336.864 103.239 336.661 103.186 336.428 103.186ZM347.473 109.077H346.356V111H344.439V109.077H340.478V107.712L344.547 101.72H346.356V107.553H347.473V109.077ZM344.439 107.553V105.979C344.439 105.831 344.441 105.655 344.445 105.452C344.454 105.249 344.462 105.046 344.471 104.843C344.479 104.64 344.488 104.46 344.496 104.303C344.509 104.142 344.517 104.03 344.521 103.967H344.471C344.39 104.14 344.306 104.31 344.217 104.475C344.128 104.635 344.024 104.805 343.906 104.982L342.205 107.553H344.439ZM354.652 106.36C354.652 107.109 354.593 107.778 354.475 108.366C354.36 108.954 354.174 109.453 353.916 109.864C353.662 110.274 353.328 110.587 352.913 110.803C352.498 111.019 351.995 111.127 351.402 111.127C350.658 111.127 350.046 110.939 349.568 110.562C349.09 110.181 348.736 109.635 348.508 108.924C348.279 108.209 348.165 107.354 348.165 106.36C348.165 105.357 348.269 104.5 348.476 103.789C348.688 103.074 349.03 102.526 349.504 102.145C349.978 101.764 350.611 101.574 351.402 101.574C352.143 101.574 352.752 101.764 353.23 102.145C353.713 102.522 354.07 103.068 354.303 103.783C354.536 104.494 354.652 105.353 354.652 106.36ZM350.114 106.36C350.114 107.067 350.152 107.657 350.228 108.131C350.308 108.601 350.442 108.954 350.628 109.191C350.814 109.428 351.072 109.546 351.402 109.546C351.728 109.546 351.984 109.43 352.17 109.197C352.361 108.96 352.496 108.607 352.577 108.137C352.657 107.663 352.697 107.071 352.697 106.36C352.697 105.653 352.657 105.063 352.577 104.589C352.496 104.115 352.361 103.759 352.17 103.522C351.984 103.281 351.728 103.161 351.402 103.161C351.072 103.161 350.814 103.281 350.628 103.522C350.442 103.759 350.308 104.115 350.228 104.589C350.152 105.063 350.114 105.653 350.114 106.36ZM363.476 103.77C364.275 103.77 364.921 104.081 365.412 104.703C365.907 105.325 366.154 106.237 366.154 107.439C366.154 108.243 366.038 108.92 365.805 109.47C365.572 110.016 365.251 110.429 364.84 110.708C364.43 110.987 363.958 111.127 363.425 111.127C363.082 111.127 362.788 111.085 362.542 111C362.297 110.911 362.088 110.799 361.914 110.664C361.741 110.524 361.59 110.376 361.463 110.219H361.362C361.396 110.389 361.421 110.562 361.438 110.74C361.455 110.917 361.463 111.091 361.463 111.26V114.123H359.527V103.903H361.102L361.375 104.824H361.463C361.59 104.633 361.745 104.458 361.927 104.297C362.109 104.136 362.327 104.009 362.581 103.916C362.839 103.819 363.137 103.77 363.476 103.77ZM362.854 105.319C362.515 105.319 362.246 105.389 362.047 105.528C361.848 105.668 361.702 105.877 361.609 106.157C361.521 106.436 361.472 106.789 361.463 107.217V107.426C361.463 107.883 361.506 108.271 361.59 108.588C361.679 108.905 361.825 109.146 362.028 109.312C362.236 109.477 362.519 109.559 362.879 109.559C363.175 109.559 363.418 109.477 363.609 109.312C363.799 109.146 363.941 108.905 364.034 108.588C364.132 108.266 364.18 107.875 364.18 107.414C364.18 106.72 364.072 106.197 363.856 105.846C363.641 105.494 363.306 105.319 362.854 105.319ZM367.481 110.092C367.481 109.694 367.589 109.415 367.805 109.254C368.025 109.094 368.289 109.013 368.598 109.013C368.899 109.013 369.157 109.094 369.373 109.254C369.593 109.415 369.703 109.694 369.703 110.092C369.703 110.473 369.593 110.748 369.373 110.917C369.157 111.087 368.899 111.171 368.598 111.171C368.289 111.171 368.025 111.087 367.805 110.917C367.589 110.748 367.481 110.473 367.481 110.092Z" fill="#0A1017"/>
<path d="M245.37 111H243.409V105.63C243.409 105.482 243.411 105.3 243.415 105.084C243.419 104.864 243.426 104.64 243.434 104.411C243.443 104.178 243.451 103.969 243.459 103.783C243.413 103.838 243.318 103.933 243.174 104.068C243.034 104.2 242.903 104.318 242.78 104.424L241.714 105.281L240.768 104.1L243.758 101.72H245.37V111ZM247.896 107.058C247.896 106.525 247.935 105.998 248.011 105.478C248.091 104.953 248.229 104.46 248.423 103.999C248.618 103.533 248.891 103.123 249.242 102.767C249.593 102.407 250.04 102.126 250.582 101.923C251.123 101.715 251.779 101.612 252.549 101.612C252.731 101.612 252.943 101.62 253.184 101.637C253.43 101.65 253.633 101.673 253.793 101.707V103.275C253.624 103.237 253.442 103.207 253.248 103.186C253.057 103.161 252.867 103.148 252.676 103.148C251.906 103.148 251.309 103.271 250.886 103.516C250.467 103.762 250.171 104.102 249.998 104.538C249.828 104.97 249.729 105.473 249.699 106.049H249.782C249.9 105.841 250.048 105.657 250.226 105.497C250.408 105.336 250.628 105.209 250.886 105.116C251.144 105.018 251.447 104.97 251.794 104.97C252.336 104.97 252.805 105.086 253.203 105.319C253.601 105.547 253.908 105.88 254.124 106.315C254.339 106.751 254.447 107.282 254.447 107.909C254.447 108.577 254.318 109.153 254.06 109.635C253.802 110.118 253.436 110.488 252.962 110.746C252.492 111 251.934 111.127 251.286 111.127C250.812 111.127 250.37 111.047 249.959 110.886C249.549 110.721 249.189 110.471 248.88 110.137C248.571 109.802 248.33 109.381 248.157 108.874C247.983 108.361 247.896 107.756 247.896 107.058ZM251.248 109.559C251.633 109.559 251.946 109.428 252.188 109.166C252.429 108.903 252.549 108.493 252.549 107.934C252.549 107.481 252.444 107.126 252.232 106.868C252.025 106.605 251.709 106.474 251.286 106.474C250.998 106.474 250.744 106.54 250.524 106.671C250.309 106.798 250.141 106.961 250.023 107.16C249.904 107.354 249.845 107.555 249.845 107.763C249.845 107.979 249.875 108.192 249.934 108.404C249.993 108.615 250.082 108.808 250.201 108.981C250.319 109.155 250.465 109.295 250.639 109.4C250.816 109.506 251.02 109.559 251.248 109.559ZM255.622 110.092C255.622 109.694 255.729 109.415 255.945 109.254C256.165 109.094 256.43 109.013 256.739 109.013C257.039 109.013 257.297 109.094 257.513 109.254C257.733 109.415 257.843 109.694 257.843 110.092C257.843 110.473 257.733 110.748 257.513 110.917C257.297 111.087 257.039 111.171 256.739 111.171C256.43 111.171 256.165 111.087 255.945 110.917C255.729 110.748 255.622 110.473 255.622 110.092ZM255.622 104.849C255.622 104.451 255.729 104.172 255.945 104.011C256.165 103.85 256.43 103.77 256.739 103.77C257.039 103.77 257.297 103.85 257.513 104.011C257.733 104.172 257.843 104.451 257.843 104.849C257.843 105.234 257.733 105.511 257.513 105.681C257.297 105.846 257.039 105.928 256.739 105.928C256.43 105.928 256.165 105.846 255.945 105.681C255.729 105.511 255.622 105.234 255.622 104.849ZM265.803 109.077H264.686V111H262.769V109.077H258.808V107.712L262.877 101.72H264.686V107.553H265.803V109.077ZM262.769 107.553V105.979C262.769 105.831 262.771 105.655 262.775 105.452C262.784 105.249 262.792 105.046 262.801 104.843C262.809 104.64 262.818 104.46 262.826 104.303C262.839 104.142 262.847 104.03 262.852 103.967H262.801C262.72 104.14 262.636 104.31 262.547 104.475C262.458 104.635 262.354 104.805 262.236 104.982L260.535 107.553H262.769ZM269.923 105.071C270.49 105.071 270.993 105.179 271.434 105.395C271.878 105.611 272.227 105.928 272.481 106.347C272.735 106.766 272.862 107.282 272.862 107.896C272.862 108.565 272.722 109.142 272.443 109.629C272.168 110.111 271.755 110.482 271.205 110.74C270.659 110.998 269.978 111.127 269.161 111.127C268.674 111.127 268.215 111.085 267.784 111C267.356 110.92 266.982 110.795 266.66 110.625V108.931C266.982 109.1 267.367 109.244 267.815 109.362C268.268 109.477 268.694 109.534 269.091 109.534C269.481 109.534 269.809 109.483 270.075 109.381C270.342 109.276 270.543 109.115 270.678 108.899C270.818 108.679 270.888 108.4 270.888 108.061C270.888 107.608 270.735 107.261 270.431 107.02C270.126 106.779 269.658 106.658 269.028 106.658C268.787 106.658 268.535 106.681 268.272 106.728C268.014 106.775 267.799 106.821 267.625 106.868L266.844 106.449L267.193 101.72H272.227V103.383H268.914L268.742 105.205C268.886 105.175 269.043 105.145 269.212 105.116C269.381 105.086 269.618 105.071 269.923 105.071Z" fill="#0A1017"/>
<path d="M228.452 101.72V110.035H229.595V113.425H228.56V111H222.111V113.425H221.076V110.035H221.787C222.104 109.493 222.401 108.886 222.676 108.213C222.955 107.536 223.203 106.83 223.418 106.093C223.639 105.353 223.816 104.61 223.952 103.865C224.091 103.12 224.18 102.405 224.218 101.72H228.452ZM227.379 102.691H225.17C225.132 103.216 225.048 103.802 224.917 104.449C224.785 105.092 224.616 105.753 224.409 106.43C224.206 107.107 223.977 107.756 223.723 108.378C223.473 109 223.209 109.553 222.93 110.035H227.379V102.691ZM237.009 107.509C237.009 108.08 236.935 108.59 236.787 109.039C236.639 109.487 236.425 109.866 236.146 110.175C235.866 110.484 235.528 110.721 235.13 110.886C234.736 111.047 234.29 111.127 233.791 111.127C233.325 111.127 232.898 111.047 232.508 110.886C232.123 110.721 231.789 110.484 231.505 110.175C231.226 109.866 231.008 109.487 230.852 109.039C230.699 108.59 230.623 108.08 230.623 107.509C230.623 106.747 230.752 106.1 231.01 105.566C231.268 105.029 231.637 104.621 232.115 104.341C232.597 104.058 233.171 103.916 233.835 103.916C234.47 103.916 235.024 104.058 235.498 104.341C235.976 104.625 236.347 105.035 236.609 105.573C236.875 106.106 237.009 106.751 237.009 107.509ZM231.715 107.509C231.715 108.067 231.789 108.552 231.937 108.962C232.085 109.373 232.314 109.69 232.623 109.915C232.931 110.139 233.329 110.251 233.816 110.251C234.298 110.251 234.694 110.139 235.003 109.915C235.316 109.69 235.547 109.373 235.695 108.962C235.843 108.552 235.917 108.067 235.917 107.509C235.917 106.954 235.843 106.476 235.695 106.074C235.547 105.668 235.318 105.355 235.009 105.135C234.7 104.915 234.3 104.805 233.81 104.805C233.086 104.805 232.555 105.044 232.216 105.522C231.882 106 231.715 106.662 231.715 107.509Z" fill="#5C73A1"/>
<circle cx="45" cy="45" r="24" fill="white" stroke="#0C58FE" stroke-width="2"/>
<path d="M51.4951 50.1533H49.2607V54H45.4268V50.1533H37.5049V47.4238L45.6426 35.4395H49.2607V47.1064H51.4951V50.1533ZM45.4268 47.1064V43.958C45.4268 43.6618 45.431 43.3105 45.4395 42.9043C45.4564 42.498 45.4733 42.0918 45.4902 41.6855C45.5072 41.2793 45.5241 40.9196 45.541 40.6064C45.5664 40.2848 45.5833 40.0605 45.5918 39.9336H45.4902C45.3294 40.2806 45.1602 40.6191 44.9824 40.9492C44.8047 41.2708 44.5973 41.6094 44.3604 41.9648L40.958 47.1064H45.4268Z" fill="#0C58FE"/>
<rect x="97" y="79" width="273" height="2" rx="1" fill="#A2AEC9"/>
<rect x="97" y="79" width="10" height="2" rx="1" fill="#0C58FE"/>
<path d="M19.9375 83.8613H22.0615C22.9827 83.8613 23.6777 83.9948 24.1465 84.2617C24.6152 84.5286 24.8496 84.9893 24.8496 85.6436C24.8496 85.917 24.8008 86.1644 24.7031 86.3857C24.6087 86.6038 24.4704 86.7845 24.2881 86.9277C24.1058 87.0677 23.8812 87.1621 23.6143 87.2109V87.2598C23.891 87.3086 24.1367 87.3949 24.3516 87.5186C24.5697 87.6423 24.7406 87.8197 24.8643 88.0508C24.9912 88.2819 25.0547 88.5814 25.0547 88.9492C25.0547 89.3854 24.9505 89.7565 24.7422 90.0625C24.5371 90.3685 24.2425 90.6012 23.8584 90.7607C23.4775 90.9202 23.0251 91 22.501 91H19.9375V83.8613ZM21.1094 86.8057H22.2324C22.763 86.8057 23.1309 86.7194 23.3359 86.5469C23.541 86.3743 23.6436 86.1221 23.6436 85.79C23.6436 85.4515 23.5215 85.2074 23.2773 85.0576C23.0365 84.9079 22.6523 84.833 22.125 84.833H21.1094V86.8057ZM21.1094 87.7529V90.0186H22.3447C22.8916 90.0186 23.2757 89.9128 23.4971 89.7012C23.7184 89.4896 23.8291 89.2031 23.8291 88.8418C23.8291 88.6204 23.7786 88.4284 23.6777 88.2656C23.5801 88.1029 23.4189 87.9775 23.1943 87.8896C22.9697 87.7985 22.667 87.7529 22.2861 87.7529H21.1094ZM33.7949 88.2852C33.7949 88.7344 33.7363 89.1331 33.6191 89.4814C33.502 89.8298 33.3311 90.1243 33.1064 90.3652C32.8818 90.6029 32.6117 90.7852 32.2959 90.9121C31.9801 91.0358 31.6237 91.0977 31.2266 91.0977C30.8555 91.0977 30.5153 91.0358 30.2061 90.9121C29.8968 90.7852 29.6283 90.6029 29.4004 90.3652C29.1758 90.1243 29.0016 89.8298 28.8779 89.4814C28.7542 89.1331 28.6924 88.7344 28.6924 88.2852C28.6924 87.6895 28.7949 87.1849 29 86.7715C29.2083 86.3548 29.5046 86.0374 29.8887 85.8193C30.2728 85.6012 30.7301 85.4922 31.2607 85.4922C31.7588 85.4922 32.1982 85.6012 32.5791 85.8193C32.96 86.0374 33.2578 86.3548 33.4727 86.7715C33.6875 87.1882 33.7949 87.6927 33.7949 88.2852ZM29.874 88.2852C29.874 88.679 29.9212 89.016 30.0156 89.2959C30.1133 89.5758 30.263 89.7907 30.4648 89.9404C30.6667 90.0869 30.9271 90.1602 31.2461 90.1602C31.5651 90.1602 31.8255 90.0869 32.0273 89.9404C32.2292 89.7907 32.3773 89.5758 32.4717 89.2959C32.5661 89.016 32.6133 88.679 32.6133 88.2852C32.6133 87.8913 32.5661 87.5576 32.4717 87.2842C32.3773 87.0075 32.2292 86.7975 32.0273 86.6543C31.8255 86.5078 31.5635 86.4346 31.2412 86.4346C30.766 86.4346 30.4193 86.5941 30.2012 86.9131C29.9831 87.2321 29.874 87.6895 29.874 88.2852ZM36.1191 85.5947V87.5527C36.1191 87.8392 36.194 88.0524 36.3438 88.1924C36.4935 88.3324 36.7083 88.4023 36.9883 88.4023C37.3008 88.4023 37.5872 88.36 37.8477 88.2754C38.1113 88.1908 38.3766 88.0768 38.6436 87.9336V85.5947H39.791V91H38.6436V88.7148C38.3734 88.8743 38.0918 89.0078 37.7988 89.1152C37.5059 89.2227 37.1624 89.2764 36.7686 89.2764C36.2087 89.2764 35.7692 89.1315 35.4502 88.8418C35.1312 88.5521 34.9717 88.1387 34.9717 87.6016V85.5947H36.1191ZM43.585 85.4922C44.0667 85.4922 44.4801 85.5915 44.8252 85.79C45.1702 85.9886 45.4355 86.2702 45.6211 86.6348C45.8066 86.9993 45.8994 87.4355 45.8994 87.9434V88.5586H42.291C42.304 89.0827 42.444 89.4863 42.7109 89.7695C42.9811 90.0527 43.3587 90.1943 43.8438 90.1943C44.1888 90.1943 44.498 90.1618 44.7715 90.0967C45.0482 90.0283 45.333 89.929 45.626 89.7988V90.7314C45.3558 90.8584 45.0807 90.9512 44.8008 91.0098C44.5208 91.0684 44.1855 91.0977 43.7949 91.0977C43.2643 91.0977 42.7972 90.9951 42.3936 90.79C41.9932 90.5817 41.679 90.2725 41.4512 89.8623C41.2266 89.4521 41.1143 88.9427 41.1143 88.334C41.1143 87.7285 41.2168 87.2142 41.4219 86.791C41.627 86.3678 41.915 86.0456 42.2861 85.8242C42.6572 85.6029 43.0902 85.4922 43.585 85.4922ZM43.585 86.3564C43.2236 86.3564 42.9307 86.4736 42.7061 86.708C42.4847 86.9424 42.3545 87.2858 42.3154 87.7383H44.7764C44.7731 87.4681 44.7275 87.2288 44.6396 87.0205C44.555 86.8122 44.4248 86.6494 44.249 86.5322C44.0765 86.415 43.8551 86.3564 43.585 86.3564ZM49.9668 85.4922C50.6081 85.4922 51.1224 85.7266 51.5098 86.1953C51.9004 86.6641 52.0957 87.3607 52.0957 88.2852C52.0957 88.8971 52.0046 89.4131 51.8223 89.833C51.6432 90.2497 51.391 90.5654 51.0654 90.7803C50.7432 90.9919 50.3672 91.0977 49.9375 91.0977C49.6641 91.0977 49.4264 91.0618 49.2246 90.9902C49.0228 90.9186 48.8503 90.8258 48.707 90.7119C48.5638 90.5947 48.4434 90.4678 48.3457 90.3311H48.2773C48.2936 90.4613 48.3083 90.6061 48.3213 90.7656C48.3376 90.9219 48.3457 91.0651 48.3457 91.1953V93.3975H47.1934V85.5947H48.1309L48.292 86.3418H48.3457C48.4466 86.1888 48.5687 86.0472 48.7119 85.917C48.8584 85.7868 49.0342 85.6842 49.2393 85.6094C49.4476 85.5312 49.6901 85.4922 49.9668 85.4922ZM49.6592 86.4297C49.3434 86.4297 49.0895 86.4932 48.8975 86.6201C48.7087 86.7438 48.5703 86.931 48.4824 87.1816C48.3978 87.4323 48.3522 87.7464 48.3457 88.124V88.2852C48.3457 88.6855 48.3864 89.0257 48.4678 89.3057C48.5524 89.5824 48.6908 89.7939 48.8828 89.9404C49.0781 90.0837 49.3418 90.1553 49.6738 90.1553C49.9538 90.1553 50.1849 90.0788 50.3672 89.9258C50.5527 89.7728 50.6911 89.5547 50.7822 89.2715C50.8734 88.9883 50.9189 88.6546 50.9189 88.2705C50.9189 87.6878 50.8148 87.2354 50.6064 86.9131C50.4014 86.5908 50.0856 86.4297 49.6592 86.4297ZM55.5771 85.4922C56.0589 85.4922 56.4723 85.5915 56.8174 85.79C57.1624 85.9886 57.4277 86.2702 57.6133 86.6348C57.7988 86.9993 57.8916 87.4355 57.8916 87.9434V88.5586H54.2832C54.2962 89.0827 54.4362 89.4863 54.7031 89.7695C54.9733 90.0527 55.3509 90.1943 55.8359 90.1943C56.181 90.1943 56.4902 90.1618 56.7637 90.0967C57.0404 90.0283 57.3252 89.929 57.6182 89.7988V90.7314C57.348 90.8584 57.0729 90.9512 56.793 91.0098C56.513 91.0684 56.1777 91.0977 55.7871 91.0977C55.2565 91.0977 54.7894 90.9951 54.3857 90.79C53.9854 90.5817 53.6712 90.2725 53.4434 89.8623C53.2188 89.4521 53.1064 88.9427 53.1064 88.334C53.1064 87.7285 53.209 87.2142 53.4141 86.791C53.6191 86.3678 53.9072 86.0456 54.2783 85.8242C54.6494 85.6029 55.0824 85.4922 55.5771 85.4922ZM55.5771 86.3564C55.2158 86.3564 54.9229 86.4736 54.6982 86.708C54.4769 86.9424 54.3467 87.2858 54.3076 87.7383H56.7686C56.7653 87.4681 56.7197 87.2288 56.6318 87.0205C56.5472 86.8122 56.417 86.6494 56.2412 86.5322C56.0687 86.415 55.8473 86.3564 55.5771 86.3564ZM63.5996 85.5947V90.1113H64.3809V92.9043H63.3213V91H59.5908V92.9043H58.5312V90.1113H58.9707C59.2441 89.7142 59.472 89.2715 59.6543 88.7832C59.8398 88.2949 59.9831 87.7806 60.084 87.2402C60.1882 86.6966 60.2533 86.1481 60.2793 85.5947H63.5996ZM62.4619 86.4736H61.2656C61.2266 86.9131 61.1598 87.3509 61.0654 87.7871C60.971 88.2201 60.849 88.6351 60.6992 89.0322C60.5527 89.4261 60.377 89.7858 60.1719 90.1113H62.4619V86.4736ZM66.4902 85.5947V88.3535C66.4902 88.4414 66.487 88.5537 66.4805 88.6904C66.4772 88.8239 66.4707 88.9639 66.4609 89.1104C66.4512 89.2536 66.4414 89.3854 66.4316 89.5059C66.4219 89.6263 66.4137 89.7158 66.4072 89.7744L69.127 85.5947H70.5234V91H69.4248V88.2705C69.4248 88.1273 69.4281 87.9613 69.4346 87.7725C69.4443 87.5837 69.4541 87.4014 69.4639 87.2256C69.4769 87.0498 69.485 86.9163 69.4883 86.8252L66.7783 91H65.3867V85.5947H66.4902Z" fill="#0A1017"/>
<path d="M30.4883 174.531C30.4883 175.013 30.3271 175.399 30.0049 175.688C29.6859 175.975 29.2692 176.157 28.7549 176.235V176.27C29.3734 176.344 29.847 176.53 30.1758 176.826C30.5046 177.119 30.6689 177.503 30.6689 177.979C30.6689 178.395 30.5599 178.763 30.3418 179.082C30.1237 179.401 29.7982 179.65 29.3652 179.829C28.9323 180.008 28.3952 180.098 27.7539 180.098C27.2884 180.098 26.8636 180.065 26.4795 180C26.0954 179.938 25.7536 179.84 25.4541 179.707V178.691C25.6592 178.789 25.8838 178.874 26.1279 178.945C26.3753 179.014 26.626 179.067 26.8799 179.106C27.137 179.142 27.3779 179.16 27.6025 179.16C28.2406 179.16 28.7142 179.053 29.0234 178.838C29.3327 178.623 29.4873 178.319 29.4873 177.925C29.4873 177.521 29.2871 177.227 28.8867 177.041C28.4863 176.855 27.9378 176.763 27.2412 176.763H26.3916V175.825H27.1875C27.7051 175.825 28.1201 175.78 28.4326 175.688C28.7451 175.597 28.9714 175.467 29.1113 175.298C29.2513 175.129 29.3213 174.927 29.3213 174.692C29.3213 174.383 29.1976 174.142 28.9502 173.97C28.7061 173.794 28.3675 173.706 27.9346 173.706C27.5244 173.706 27.1647 173.761 26.8555 173.872C26.5462 173.983 26.2516 174.128 25.9717 174.307L25.4395 173.521C25.6576 173.371 25.8952 173.239 26.1523 173.125C26.4128 173.011 26.6992 172.922 27.0117 172.856C27.3242 172.791 27.6676 172.759 28.042 172.759C28.5628 172.759 29.0039 172.835 29.3652 172.988C29.7298 173.138 30.0081 173.346 30.2002 173.613C30.3923 173.88 30.4883 174.186 30.4883 174.531ZM34.1016 174.492C34.7852 174.492 35.3011 174.644 35.6494 174.946C36.001 175.249 36.1768 175.721 36.1768 176.362V180H35.3613L35.1416 179.233H35.1025C34.9495 179.429 34.7917 179.59 34.6289 179.717C34.4661 179.844 34.2773 179.938 34.0625 180C33.8509 180.065 33.5921 180.098 33.2861 180.098C32.9639 180.098 32.6758 180.039 32.4219 179.922C32.168 179.801 31.9678 179.619 31.8213 179.375C31.6748 179.131 31.6016 178.822 31.6016 178.447C31.6016 177.891 31.8083 177.472 32.2217 177.192C32.6383 176.912 33.2666 176.758 34.1064 176.729L35.0439 176.694V176.411C35.0439 176.037 34.9561 175.77 34.7803 175.61C34.6077 175.451 34.3636 175.371 34.0479 175.371C33.7777 175.371 33.5156 175.41 33.2617 175.488C33.0078 175.566 32.7604 175.662 32.5195 175.776L32.1484 174.966C32.4121 174.826 32.7116 174.712 33.0469 174.624C33.3854 174.536 33.737 174.492 34.1016 174.492ZM35.0391 177.417L34.3408 177.441C33.7679 177.461 33.3659 177.559 33.1348 177.734C32.9036 177.91 32.7881 178.151 32.7881 178.457C32.7881 178.724 32.8678 178.919 33.0273 179.043C33.1868 179.163 33.3968 179.224 33.6572 179.224C34.0544 179.224 34.3831 179.111 34.6436 178.887C34.9072 178.659 35.0391 178.325 35.0391 177.886V177.417ZM37.4756 176.758C37.4756 175.973 37.5618 175.306 37.7344 174.756C37.9069 174.206 38.1787 173.765 38.5498 173.433C38.9209 173.101 39.4027 172.874 39.9951 172.754C40.3792 172.666 40.7699 172.591 41.167 172.529C41.5641 172.467 41.9613 172.407 42.3584 172.349L42.5146 173.359C42.3291 173.382 42.1305 173.41 41.9189 173.442C41.7074 173.472 41.4941 173.503 41.2793 173.535C41.0677 173.568 40.8643 173.602 40.6689 173.638C40.4769 173.67 40.3044 173.703 40.1514 173.735C39.8454 173.8 39.5866 173.908 39.375 174.058C39.1667 174.204 39.0039 174.419 38.8867 174.702C38.7695 174.985 38.6995 175.363 38.6768 175.835H38.7402C38.8281 175.701 38.9502 175.568 39.1064 175.435C39.2627 175.301 39.4515 175.19 39.6729 175.103C39.8975 175.011 40.153 174.966 40.4395 174.966C40.8887 174.966 41.2695 175.06 41.582 175.249C41.8978 175.438 42.137 175.711 42.2998 176.069C42.4658 176.427 42.5488 176.859 42.5488 177.363C42.5488 177.965 42.4414 178.47 42.2266 178.877C42.015 179.281 41.7188 179.585 41.3379 179.79C40.957 179.995 40.5127 180.098 40.0049 180.098C39.6143 180.098 39.2627 180.024 38.9502 179.878C38.641 179.731 38.3757 179.517 38.1543 179.233C37.9362 178.947 37.7686 178.597 37.6514 178.184C37.5342 177.767 37.4756 177.292 37.4756 176.758ZM40.083 179.155C40.3434 179.155 40.568 179.1 40.7568 178.989C40.9489 178.879 41.097 178.7 41.2012 178.452C41.3086 178.205 41.3623 177.878 41.3623 177.471C41.3623 176.969 41.2712 176.576 41.0889 176.289C40.9098 175.999 40.6136 175.854 40.2002 175.854C39.9463 175.854 39.7135 175.911 39.502 176.025C39.2904 176.139 39.1113 176.273 38.9648 176.426C38.8184 176.576 38.7142 176.707 38.6523 176.821C38.6523 177.118 38.6735 177.404 38.7158 177.681C38.7614 177.957 38.8363 178.208 38.9404 178.433C39.0479 178.654 39.1943 178.83 39.3799 178.96C39.5654 179.09 39.7998 179.155 40.083 179.155ZM46.0205 174.492C46.5023 174.492 46.9157 174.591 47.2607 174.79C47.6058 174.989 47.8711 175.27 48.0566 175.635C48.2422 175.999 48.335 176.436 48.335 176.943V177.559H44.7266C44.7396 178.083 44.8796 178.486 45.1465 178.77C45.4167 179.053 45.7943 179.194 46.2793 179.194C46.6243 179.194 46.9336 179.162 47.207 179.097C47.4837 179.028 47.7686 178.929 48.0615 178.799V179.731C47.7913 179.858 47.5163 179.951 47.2363 180.01C46.9564 180.068 46.6211 180.098 46.2305 180.098C45.6999 180.098 45.2327 179.995 44.8291 179.79C44.4287 179.582 44.1146 179.272 43.8867 178.862C43.6621 178.452 43.5498 177.943 43.5498 177.334C43.5498 176.729 43.6523 176.214 43.8574 175.791C44.0625 175.368 44.3506 175.046 44.7217 174.824C45.0928 174.603 45.5257 174.492 46.0205 174.492ZM46.0205 175.356C45.6592 175.356 45.3662 175.474 45.1416 175.708C44.9202 175.942 44.79 176.286 44.751 176.738H47.2119C47.2087 176.468 47.1631 176.229 47.0752 176.021C46.9906 175.812 46.8604 175.649 46.6846 175.532C46.512 175.415 46.2907 175.356 46.0205 175.356ZM52.4023 174.492C53.0436 174.492 53.5579 174.727 53.9453 175.195C54.3359 175.664 54.5312 176.361 54.5312 177.285C54.5312 177.897 54.4401 178.413 54.2578 178.833C54.0788 179.25 53.8265 179.565 53.501 179.78C53.1787 179.992 52.8027 180.098 52.373 180.098C52.0996 180.098 51.862 180.062 51.6602 179.99C51.4583 179.919 51.2858 179.826 51.1426 179.712C50.9993 179.595 50.8789 179.468 50.7812 179.331H50.7129C50.7292 179.461 50.7438 179.606 50.7568 179.766C50.7731 179.922 50.7812 180.065 50.7812 180.195V182.397H49.6289V174.595H50.5664L50.7275 175.342H50.7812C50.8822 175.189 51.0042 175.047 51.1475 174.917C51.2939 174.787 51.4697 174.684 51.6748 174.609C51.8831 174.531 52.1257 174.492 52.4023 174.492ZM52.0947 175.43C51.779 175.43 51.5251 175.493 51.333 175.62C51.1442 175.744 51.0059 175.931 50.918 176.182C50.8333 176.432 50.7878 176.746 50.7812 177.124V177.285C50.7812 177.686 50.8219 178.026 50.9033 178.306C50.988 178.582 51.1263 178.794 51.3184 178.94C51.5137 179.084 51.7773 179.155 52.1094 179.155C52.3893 179.155 52.6204 179.079 52.8027 178.926C52.9883 178.773 53.1266 178.555 53.2178 178.271C53.3089 177.988 53.3545 177.655 53.3545 177.271C53.3545 176.688 53.2503 176.235 53.042 175.913C52.8369 175.591 52.5212 175.43 52.0947 175.43ZM55.0439 174.595H56.2939L57.4023 177.681C57.4512 177.821 57.4951 177.959 57.5342 178.096C57.5765 178.229 57.6123 178.361 57.6416 178.491C57.6742 178.621 57.7002 178.752 57.7197 178.882H57.749C57.7816 178.713 57.8271 178.524 57.8857 178.315C57.9476 178.104 58.016 177.892 58.0908 177.681L59.1553 174.595H60.3906L58.0713 180.742C57.9378 181.094 57.7734 181.393 57.5781 181.641C57.3861 181.891 57.1582 182.08 56.8945 182.207C56.6309 182.337 56.3298 182.402 55.9912 182.402C55.8285 182.402 55.6868 182.393 55.5664 182.373C55.446 182.357 55.3434 182.339 55.2588 182.319V181.401C55.3271 181.418 55.4134 181.432 55.5176 181.445C55.6217 181.458 55.7292 181.465 55.8398 181.465C56.0449 181.465 56.2223 181.424 56.3721 181.343C56.5218 181.261 56.6488 181.146 56.7529 180.996C56.8571 180.85 56.9434 180.682 57.0117 180.493L57.2021 179.985L55.0439 174.595ZM65.293 175.498H63.5156V180H62.373V175.498H60.6055V174.595H65.293V175.498Z" fill="#0A1017"/>
<path d="M99.5156 35.0117H105.736C108.398 35.0117 110.412 35.3854 111.779 36.1328C113.146 36.8802 113.83 38.1927 113.83 40.0703C113.83 40.8268 113.707 41.5104 113.461 42.1211C113.224 42.7318 112.878 43.2331 112.422 43.625C111.966 44.0169 111.41 44.2721 110.754 44.3906V44.5273C111.419 44.6641 112.021 44.901 112.559 45.2383C113.096 45.5664 113.525 46.0495 113.844 46.6875C114.172 47.3164 114.336 48.1549 114.336 49.2031C114.336 50.4154 114.04 51.4544 113.447 52.3203C112.855 53.1862 112.007 53.8516 110.904 54.3164C109.811 54.7721 108.507 55 106.994 55H99.5156V35.0117ZM103.754 42.9277H106.215C107.445 42.9277 108.298 42.7363 108.771 42.3535C109.245 41.9616 109.482 41.3874 109.482 40.6309C109.482 39.8652 109.2 39.3184 108.635 38.9902C108.079 38.653 107.195 38.4844 105.982 38.4844H103.754V42.9277ZM103.754 46.291V51.5H106.516C107.792 51.5 108.68 51.2539 109.182 50.7617C109.683 50.2695 109.934 49.6087 109.934 48.7793C109.934 48.2871 109.824 47.8542 109.605 47.4805C109.387 47.1068 109.018 46.8151 108.498 46.6055C107.988 46.3958 107.281 46.291 106.379 46.291H103.754ZM116.646 49.2031V45.7852H123.988V49.2031H116.646ZM136.402 55H132.178V43.4336C132.178 43.1146 132.182 42.7227 132.191 42.2578C132.201 41.7839 132.214 41.3008 132.232 40.8086C132.251 40.3073 132.269 39.8561 132.287 39.4551C132.187 39.5736 131.982 39.7786 131.672 40.0703C131.371 40.3529 131.089 40.6081 130.824 40.8359L128.527 42.6816L126.49 40.1387L132.93 35.0117H136.402V55ZM152.426 55H148.201V43.4336C148.201 43.1146 148.206 42.7227 148.215 42.2578C148.224 41.7839 148.238 41.3008 148.256 40.8086C148.274 40.3073 148.292 39.8561 148.311 39.4551C148.21 39.5736 148.005 39.7786 147.695 40.0703C147.395 40.3529 147.112 40.6081 146.848 40.8359L144.551 42.6816L142.514 40.1387L148.953 35.0117H152.426V55ZM171.977 55H158.004V52.0605L163.021 46.9883C164.033 45.9492 164.844 45.0833 165.455 44.3906C166.075 43.6888 166.521 43.0508 166.795 42.4766C167.077 41.9023 167.219 41.2871 167.219 40.6309C167.219 39.8379 166.995 39.2454 166.549 38.8535C166.111 38.4525 165.523 38.252 164.785 38.252C164.01 38.252 163.258 38.4297 162.529 38.7852C161.8 39.1406 161.039 39.6465 160.246 40.3027L157.949 37.582C158.523 37.0898 159.13 36.625 159.768 36.1875C160.415 35.75 161.162 35.3991 162.01 35.1348C162.867 34.8613 163.892 34.7246 165.086 34.7246C166.398 34.7246 167.524 34.9616 168.463 35.4355C169.411 35.9095 170.14 36.5566 170.65 37.377C171.161 38.1882 171.416 39.1087 171.416 40.1387C171.416 41.2415 171.197 42.2487 170.76 43.1602C170.322 44.0716 169.684 44.974 168.846 45.8672C168.016 46.7604 167.014 47.7493 165.838 48.834L163.268 51.2539V51.4453H171.977V55Z" fill="#0A1017"/>
<rect x="97" y="130" width="273" height="60" rx="30" fill="#0C58FE"/>
<path d="M339.917 147C347.05 147 352.833 152.783 352.833 159.917C352.833 167.05 347.05 172.833 339.917 172.833C332.783 172.833 327 167.05 327 159.917C327 152.783 332.783 147 339.917 147ZM339.917 148.938C333.853 148.938 328.938 153.853 328.938 159.917C328.938 165.98 333.853 170.896 339.917 170.896C345.98 170.896 350.896 165.98 350.896 159.917C350.896 153.853 345.98 148.938 339.917 148.938ZM339.461 154.173L339.555 154.064C339.899 153.72 340.437 153.689 340.816 153.97L340.925 154.064L346.092 159.232C346.436 159.576 346.468 160.114 346.186 160.493L346.092 160.602L340.924 165.769C340.545 166.147 339.932 166.147 339.554 165.768C339.21 165.424 339.179 164.886 339.46 164.507L339.554 164.398L343.07 160.884L334.426 160.885C333.936 160.885 333.53 160.52 333.466 160.047L333.457 159.916C333.457 159.425 333.822 159.02 334.295 158.956L334.426 158.947L343.067 158.947L339.555 155.434C339.211 155.09 339.179 154.552 339.461 154.173L339.555 154.064L339.461 154.173Z" fill="white"/>
<path d="M339.461 154.173L339.555 154.064C339.899 153.72 340.437 153.689 340.816 153.97L340.925 154.064L346.092 159.232C346.436 159.576 346.468 160.114 346.186 160.493L346.092 160.602L340.924 165.769C340.545 166.147 339.932 166.147 339.554 165.768C339.21 165.424 339.179 164.886 339.46 164.507L339.554 164.398L343.07 160.884L334.426 160.885C333.936 160.885 333.53 160.52 333.466 160.047L333.457 159.916C333.457 159.425 333.822 159.02 334.295 158.956L334.426 158.947L343.067 158.947L339.555 155.434C339.211 155.09 339.179 154.552 339.461 154.173ZM339.461 154.173L339.555 154.064L339.461 154.173ZM339.917 147C347.05 147 352.833 152.783 352.833 159.917C352.833 167.05 347.05 172.833 339.917 172.833C332.783 172.833 327 167.05 327 159.917C327 152.783 332.783 147 339.917 147ZM339.917 148.938C333.853 148.938 328.938 153.853 328.938 159.917C328.938 165.98 333.853 170.896 339.917 170.896C345.98 170.896 350.896 165.98 350.896 159.917C350.896 153.853 345.98 148.938 339.917 148.938Z" stroke="#0C58FE" stroke-width="0.5"/>
<path d="M133.645 164.416V154.421H141.321V164.416H139.694V155.816H135.285V164.416H133.645ZM146.872 154.421C148.162 154.421 149.103 154.686 149.695 155.214C150.288 155.743 150.584 156.484 150.584 157.436C150.584 157.869 150.516 158.281 150.379 158.673C150.247 159.061 150.028 159.405 149.723 159.706C149.417 160.002 149.014 160.236 148.513 160.41C148.016 160.583 147.403 160.669 146.674 160.669H145.607V164.416H143.967V154.421H146.872ZM146.763 155.782H145.607V159.302H146.503C147.018 159.302 147.455 159.243 147.815 159.125C148.175 159.001 148.449 158.808 148.636 158.543C148.823 158.279 148.916 157.931 148.916 157.498C148.916 156.919 148.741 156.488 148.39 156.206C148.043 155.923 147.501 155.782 146.763 155.782ZM152.587 154.421H154.084V159.719C154.084 159.947 154.082 160.198 154.077 160.471C154.073 160.745 154.063 161.011 154.05 161.271C154.041 161.531 154.032 161.763 154.022 161.968C154.013 162.169 154.004 162.315 153.995 162.406H154.043L159.129 154.421H161.036V164.416H159.553V159.159C159.553 158.913 159.557 158.646 159.566 158.359C159.576 158.072 159.587 157.794 159.601 157.525C159.614 157.256 159.628 157.019 159.642 156.814C159.655 156.609 159.664 156.463 159.669 156.376H159.607L154.508 164.416H152.587V154.421ZM167.927 155.672C167.448 155.672 167.02 155.759 166.642 155.932C166.268 156.105 165.951 156.356 165.691 156.684C165.432 157.008 165.233 157.402 165.097 157.867C164.96 158.327 164.892 158.847 164.892 159.425C164.892 160.2 165.001 160.868 165.22 161.428C165.438 161.984 165.771 162.413 166.218 162.713C166.664 163.01 167.229 163.158 167.913 163.158C168.337 163.158 168.749 163.117 169.15 163.035C169.551 162.953 169.966 162.841 170.395 162.7V164.094C169.989 164.254 169.579 164.37 169.164 164.443C168.749 164.516 168.271 164.552 167.729 164.552C166.708 164.552 165.86 164.34 165.186 163.917C164.516 163.493 164.014 162.896 163.682 162.125C163.354 161.355 163.189 160.453 163.189 159.418C163.189 158.662 163.294 157.969 163.504 157.34C163.714 156.711 164.019 156.169 164.42 155.713C164.821 155.253 165.315 154.9 165.903 154.654C166.496 154.403 167.173 154.278 167.934 154.278C168.435 154.278 168.927 154.335 169.41 154.449C169.898 154.558 170.349 154.715 170.764 154.92L170.189 156.274C169.843 156.11 169.481 155.969 169.103 155.85C168.724 155.732 168.332 155.672 167.927 155.672ZM176.007 164.416H174.359V155.816H171.434V154.421H178.926V155.816H176.007V164.416ZM188.113 154.421L184.935 161.579C184.657 162.217 184.365 162.757 184.06 163.199C183.759 163.641 183.387 163.978 182.945 164.21C182.503 164.438 181.931 164.552 181.229 164.552C180.974 164.552 180.719 164.534 180.464 164.498C180.209 164.461 179.974 164.411 179.76 164.347V162.857C179.965 162.944 180.186 163.01 180.423 163.055C180.664 163.096 180.904 163.117 181.141 163.117C181.473 163.117 181.749 163.064 181.968 162.959C182.191 162.855 182.378 162.7 182.528 162.495C182.683 162.285 182.822 162.03 182.945 161.729L179.288 154.421H181.045L183.403 159.377C183.44 159.455 183.485 159.555 183.54 159.678C183.595 159.797 183.647 159.92 183.697 160.047C183.752 160.17 183.798 160.284 183.834 160.389H183.896C183.927 160.298 183.966 160.191 184.012 160.068C184.062 159.94 184.112 159.81 184.162 159.678C184.217 159.546 184.265 159.43 184.306 159.33L186.397 154.421H188.113ZM189.426 164.416V154.421H197.103V164.416H195.476V155.816H191.066V164.416H189.426ZM199.755 154.421H201.252V159.719C201.252 159.947 201.25 160.198 201.245 160.471C201.241 160.745 201.231 161.011 201.218 161.271C201.209 161.531 201.2 161.763 201.19 161.968C201.181 162.169 201.172 162.315 201.163 162.406H201.211L206.297 154.421H208.204V164.416H206.721V159.159C206.721 158.913 206.725 158.646 206.734 158.359C206.743 158.072 206.755 157.794 206.769 157.525C206.782 157.256 206.796 157.019 206.81 156.814C206.823 156.609 206.832 156.463 206.837 156.376H206.775L201.676 164.416H199.755V154.421ZM214.302 164.416H212.654V155.816H209.729V154.421H217.221V155.816H214.302V164.416ZM218.752 164.416V154.421H220.393V158.461H221.76C222.68 158.461 223.428 158.589 224.002 158.844C224.576 159.095 224.995 159.441 225.26 159.883C225.529 160.325 225.663 160.829 225.663 161.394C225.663 162.333 225.351 163.071 224.727 163.609C224.107 164.147 223.138 164.416 221.821 164.416H218.752ZM220.393 163.048H221.719C222.452 163.048 223.015 162.918 223.407 162.659C223.799 162.394 223.995 161.973 223.995 161.394C223.995 160.988 223.899 160.674 223.708 160.451C223.517 160.223 223.239 160.063 222.874 159.972C222.509 159.881 222.065 159.835 221.541 159.835H220.393V163.048ZM238.959 164.416H237.052L232.943 159.343V164.416H231.303V154.421H232.943V159.261L236.977 154.421H238.768L234.734 159.248L238.959 164.416ZM248.181 155.672C247.702 155.672 247.274 155.759 246.896 155.932C246.522 156.105 246.205 156.356 245.945 156.684C245.686 157.008 245.487 157.402 245.351 157.867C245.214 158.327 245.146 158.847 245.146 159.425C245.146 160.2 245.255 160.868 245.474 161.428C245.692 161.984 246.025 162.413 246.472 162.713C246.918 163.01 247.483 163.158 248.167 163.158C248.591 163.158 249.003 163.117 249.404 163.035C249.805 162.953 250.22 162.841 250.648 162.7V164.094C250.243 164.254 249.833 164.37 249.418 164.443C249.003 164.516 248.525 164.552 247.982 164.552C246.962 164.552 246.114 164.34 245.439 163.917C244.77 163.493 244.268 162.896 243.936 162.125C243.607 161.355 243.443 160.453 243.443 159.418C243.443 158.662 243.548 157.969 243.758 157.34C243.967 156.711 244.273 156.169 244.674 155.713C245.075 155.253 245.569 154.9 246.157 154.654C246.75 154.403 247.426 154.278 248.188 154.278C248.689 154.278 249.181 154.335 249.664 154.449C250.152 154.558 250.603 154.715 251.018 154.92L250.443 156.274C250.097 156.11 249.735 155.969 249.356 155.85C248.978 155.732 248.586 155.672 248.181 155.672ZM252.795 164.416V154.421H258.893V155.809H254.436V158.461H255.632C256.58 158.461 257.341 158.587 257.915 158.837C258.489 159.083 258.904 159.428 259.159 159.87C259.414 160.312 259.542 160.82 259.542 161.394C259.542 162.347 259.239 163.089 258.633 163.623C258.031 164.151 257.054 164.416 255.7 164.416H252.795ZM254.436 163.048H255.598C256.368 163.048 256.94 162.918 257.313 162.659C257.687 162.394 257.874 161.973 257.874 161.394C257.874 160.988 257.783 160.674 257.601 160.451C257.418 160.223 257.145 160.063 256.78 159.972C256.42 159.881 255.965 159.835 255.413 159.835H254.436V163.048ZM270.418 159.405C270.418 160.175 270.32 160.877 270.124 161.51C269.933 162.139 269.643 162.681 269.256 163.137C268.868 163.588 268.383 163.937 267.8 164.183C267.216 164.429 266.533 164.552 265.749 164.552C264.951 164.552 264.259 164.429 263.671 164.183C263.088 163.937 262.602 163.586 262.215 163.13C261.832 162.675 261.545 162.13 261.354 161.497C261.162 160.863 261.066 160.161 261.066 159.391C261.066 158.361 261.235 157.463 261.572 156.698C261.914 155.928 262.431 155.331 263.124 154.907C263.821 154.478 264.701 154.264 265.763 154.264C266.802 154.264 267.665 154.476 268.354 154.9C269.042 155.324 269.557 155.921 269.898 156.691C270.245 157.457 270.418 158.361 270.418 159.405ZM262.789 159.405C262.789 160.175 262.894 160.843 263.104 161.408C263.313 161.968 263.634 162.401 264.067 162.707C264.505 163.007 265.065 163.158 265.749 163.158C266.437 163.158 266.998 163.007 267.431 162.707C267.864 162.401 268.183 161.968 268.388 161.408C268.593 160.843 268.695 160.175 268.695 159.405C268.695 158.234 268.461 157.318 267.991 156.657C267.526 155.991 266.784 155.659 265.763 155.659C265.079 155.659 264.516 155.809 264.074 156.11C263.637 156.411 263.313 156.841 263.104 157.402C262.894 157.958 262.789 158.625 262.789 159.405ZM275.47 154.421C276.759 154.421 277.701 154.686 278.293 155.214C278.885 155.743 279.182 156.484 279.182 157.436C279.182 157.869 279.113 158.281 278.977 158.673C278.844 159.061 278.626 159.405 278.32 159.706C278.015 160.002 277.612 160.236 277.11 160.41C276.614 160.583 276.001 160.669 275.271 160.669H274.205V164.416H272.564V154.421H275.47ZM275.36 155.782H274.205V159.302H275.101C275.616 159.302 276.053 159.243 276.413 159.125C276.773 159.001 277.047 158.808 277.233 158.543C277.42 158.279 277.514 157.931 277.514 157.498C277.514 156.919 277.338 156.488 276.987 156.206C276.641 155.923 276.099 155.782 275.36 155.782ZM288.834 164.416H286.927L282.818 159.343V164.416H281.178V154.421H282.818V159.261L286.852 154.421H288.643L284.609 159.248L288.834 164.416ZM295.82 164.416H290.16V154.421H295.82V155.802H291.801V158.516H295.567V159.89H291.801V163.028H295.82V164.416Z" fill="white"/>
<path d="M43.1253 154.995C42.7822 155.41 42.5587 155.928 42.5077 156.496L37.2489 156.495C36.8353 156.495 36.5 156.831 36.5 157.244V157.822C36.5 158.358 36.6911 158.876 37.039 159.283C38.2164 160.662 40.0227 161.403 42.5076 161.488C42.5569 162.058 42.7808 162.579 43.1253 162.996L42.9965 162.996C39.8506 162.996 37.4646 162.091 35.8983 160.257C35.3185 159.578 35 158.715 35 157.822V157.244C35 156.054 35.9247 155.08 37.0949 155L37.2489 154.995L43.1253 154.995ZM47.7465 152.495H50.7465C51.3937 152.495 51.926 152.987 51.99 153.618L51.9965 153.745L51.996 154.995L53.2465 154.995C54.213 154.995 54.9965 155.779 54.9965 156.745V161.245C54.9965 162.212 54.213 162.995 53.2465 162.995H45.2465C44.28 162.995 43.4965 162.212 43.4965 161.245V156.745C43.4965 155.779 44.28 154.995 45.2465 154.995L46.496 154.995L46.4965 153.745C46.4965 153.098 46.9883 152.566 47.6187 152.502L47.7465 152.495H50.7465H47.7465ZM53.2465 156.495H45.2465C45.1084 156.495 44.9965 156.607 44.9965 156.745V161.245C44.9965 161.383 45.1084 161.495 45.2465 161.495H53.2465C53.3845 161.495 53.4965 161.383 53.4965 161.245V156.745C53.4965 156.607 53.3845 156.495 53.2465 156.495ZM50.4965 153.995H47.9965L47.996 154.995H50.496L50.4965 153.995ZM42.9965 143C45.7579 143 47.9965 145.239 47.9965 148C47.9965 150.761 45.7579 153 42.9965 153C40.235 153 37.9965 150.761 37.9965 148C37.9965 145.239 40.235 143 42.9965 143ZM42.9965 144.5C41.0635 144.5 39.4965 146.067 39.4965 148C39.4965 149.933 41.0635 151.5 42.9965 151.5C44.9295 151.5 46.4965 149.933 46.4965 148C46.4965 146.067 44.9295 144.5 42.9965 144.5Z" fill="#4969AD"/>
</svg>
